<svg xmlns="http://www.w3.org/2000/svg" xmlns:xlink="http://www.w3.org/1999/xlink" viewBox="0 0 500.81 500.81"><defs><style>.cls-1{isolation:isolate;}.cls-2{fill:url(#radial-gradient);}.cls-3{fill:#d8e3e1;opacity:0.25;mix-blend-mode:color-dodge;}.cls-17,.cls-21,.cls-4,.cls-6{fill:#00142b;}.cls-16,.cls-21,.cls-4{opacity:0.2;}.cls-5{fill:#aa7b11;}.cls-7{fill:#ce8a57;}.cls-8{fill:#f9cea7;}.cls-9{fill:#e8ae7e;}.cls-10{fill:#fff;}.cls-11{fill:#d6a429;}.cls-12{fill:#7c570b;}.cls-13{fill:#fcfdeb;}.cls-14{fill:#414951;}.cls-15{fill:#2e353a;}.cls-17,.cls-20,.cls-21,.cls-24,.cls-25{fill-rule:evenodd;}.cls-18{fill:#a6b3bf;}.cls-19,.cls-20{fill:#e2e2e2;}.cls-22{opacity:0.9;}.cls-23,.cls-24{fill:#787e8e;}.cls-25{fill:#a0a4af;}.cls-26{fill:#555965;}.cls-27{fill:#70757d;}.cls-28{fill:#e1d3ca;}</style><radialGradient id="radial-gradient" cx="250.4" cy="250.4" r="330.54" gradientUnits="userSpaceOnUse"><stop offset="0" stop-color="#6cafba"/><stop offset="0.35" stop-color="#69acb8"/><stop offset="0.63" stop-color="#61a2b2"/><stop offset="0.9" stop-color="#5491a7"/><stop offset="0.96" stop-color="#4f8ba4"/></radialGradient></defs><title>chef</title><g class="cls-1"><g id="designed_by_freepik" data-name="designed by freepik"><rect class="cls-2" width="500.81" height="500.81"/><path class="cls-3" d="M145.62,145.28s-13.94-23.7,12.54-32.06,50.18,27.88,51.57-2.79S180.46,38,218.1,50.49,265.49,92.31,292,65.83,278,56.44,277,49.94s13-12.08,22.3-4.65,8.37,13.94-7.43,27.88-18.59,13.94-41.82,3.72S214.77,62,231.5,91.76s48.32,63.19,17.65,56.68-32.52,11.15-42.75,20.45S158.24,179.29,145.62,145.28Z" transform="translate(2.81 35.06)"/></g><g id="objects"><ellipse class="cls-4" cx="267.9" cy="455.44" rx="77.2" ry="7.38"/><path class="cls-5" d="M260.85,140.21s13.39-9.24,19.37,0-22.58,27.51-2.33,32.48c0,0,8.59.17,6.29-7.39,0,0,7.79,15.41-10.79,15.41s-17.85-12.54-13.81-20.58S260.85,140.21,260.85,140.21Z" transform="translate(2.81 35.06)"/><ellipse class="cls-6" cx="267.48" cy="177.46" rx="3.57" ry="7.14"/><polygon class="cls-7" points="242.48 233.23 234.61 232.1 236.56 211.21 248.6 208.97 248.28 228.15 242.48 233.23"/><path class="cls-8" d="M263.1,152a6.43,6.43,0,0,0-1.24,0c.67-8.68-.53-23.57-8-26.85-9.18-4-23.84-10.75-32.24,6.27,0,0-2.45,18-5.09,22.4-2.8,6.21-5.75,23.86,18.79,26.41,10.58.43,23-1.56,25.12-17.09a6.76,6.76,0,0,0,1.49.36c3.76.44,5.86-2.46,6.25-6.29S266.86,152.48,263.1,152Z" transform="translate(2.81 35.06)"/><path class="cls-9" d="M263.1,152a6.43,6.43,0,0,0-1.24,0c.67-8.68-.53-23.57-8-26.85-4.18-1.83-9.49-4.22-14.83-4.67a12.6,12.6,0,0,1-.66,7.29,9.85,9.85,0,0,1,9.81,5.37c4.69,8.31,7.9,18.51,5.77,28.08-2.5,11.28-12.18,17.26-23.12,18.28h-.11a43.22,43.22,0,0,0,4.6.72c10.58.43,23-1.56,25.12-17.09a6.76,6.76,0,0,0,1.49.36c3.76.44,5.86-2.46,6.25-6.29S266.86,152.48,263.1,152Z" transform="translate(2.81 35.06)"/><path class="cls-9" d="M227.37,157.08a3.88,3.88,0,0,0,2.84-2.79c.31-1.53,3.32-1.09,3,.8s.19,7.19-4.4,7.2-6.11-2.62-4.61-4.3C225.05,157,226.25,157.34,227.37,157.08Z" transform="translate(2.81 35.06)"/><path class="cls-10" d="M231.48,166.61s7.11.24,12-2a6.91,6.91,0,0,1-6.47,4.88C231.72,169.83,231.48,166.61,231.48,166.61Z" transform="translate(2.81 35.06)"/><path d="M240.88,150.8c0,2.09-.76,3.78-1.69,3.78s-1.69-1.69-1.69-3.78.76-3.77,1.69-3.77S240.88,148.72,240.88,150.8Z" transform="translate(2.81 35.06)"/><path d="M227.69,149.54c0,2.08-.76,3.77-1.69,3.77s-1.69-1.69-1.69-3.77.76-3.77,1.69-3.77S227.69,147.46,227.69,149.54Z" transform="translate(2.81 35.06)"/><path class="cls-11" d="M238.79,126.17s-.33,17.58,14.63,26.81c0,0,5.87,3.09,5.58,8.53,0,0,5.29-3.58,6.75-19.46,1.15-12.38-14.43-25.35-22.49-22.48C241,120.38,239.31,122.46,238.79,126.17Z" transform="translate(2.81 35.06)"/><path class="cls-5" d="M243.26,119.57a5.91,5.91,0,0,0-2.73,2c4.74-1.5,10.74.2,13,4.91,3.69,7.68,6.79,17.66,3.43,26a16.67,16.67,0,0,1-1.11,2.24,8.66,8.66,0,0,1,3.15,6.76s5.29-3.58,6.75-19.46C266.9,129.67,251.32,116.7,243.26,119.57Z" transform="translate(2.81 35.06)"/><path class="cls-11" d="M247.35,119.94s-3.68,18.33-31.17,19.51C216.18,139.45,216.18,111.37,247.35,119.94Z" transform="translate(2.81 35.06)"/><path class="cls-11" d="M240,121.39l-.05.44c0,.28,0,.69-.08,1.22-.06,1-.12,2.55-.06,4.33,0,.89.1,1.85.16,2.87s.24,2.07.39,3.16.38,2.21.67,3.33c.14.56.25,1.13.41,1.7l.54,1.67a30.58,30.58,0,0,0,1.21,3.28c.42,1.07,1,2.07,1.44,3.07a12.9,12.9,0,0,0,.78,1.42l.79,1.35a26.07,26.07,0,0,0,1.58,2.39l.73,1.06a7,7,0,0,0,.69.93l1.19,1.48c.65.83,1,1.32,1,1.32s-.48-.37-1.3-1l-1.48-1.24a18.77,18.77,0,0,1-1.75-1.79,17.7,17.7,0,0,1-1.91-2.27,29.38,29.38,0,0,1-1.88-2.75l-.86-1.54a10.21,10.21,0,0,1-.81-1.62,33.86,33.86,0,0,1-1.34-3.43l-.53-1.78c-.16-.6-.27-1.2-.4-1.79a30.16,30.16,0,0,1-.53-3.53,31.81,31.81,0,0,1-.13-3.33,27.05,27.05,0,0,1,.18-3,24.1,24.1,0,0,1,.36-2.48c.15-.73.3-1.36.44-1.88A14.29,14.29,0,0,1,240,121.39Z" transform="translate(2.81 35.06)"/><path class="cls-12" d="M221.9,141.74a1.55,1.55,0,0,1,.18-.36,3.19,3.19,0,0,1,.76-.79,3.15,3.15,0,0,1,.66-.36,3.53,3.53,0,0,1,.82-.22,4,4,0,0,1,.91,0,4,4,0,0,1,.91.2,4.43,4.43,0,0,1,.83.36,3.78,3.78,0,0,1,.73.46,7.07,7.07,0,0,1,1.12,1,8.2,8.2,0,0,1,.64.84c.14.21.21.34.21.34l-.35-.2c-.22-.12-.51-.32-.87-.54l-.57-.34a6.6,6.6,0,0,0-.64-.36,4.42,4.42,0,0,0-.69-.34,4,4,0,0,0-.72-.28,2.71,2.71,0,0,0-.73-.19,5.94,5.94,0,0,0-.71-.08c-.23,0-.46,0-.68.06a3.77,3.77,0,0,0-.6.16A4.78,4.78,0,0,0,221.9,141.74Z" transform="translate(2.81 35.06)"/><path class="cls-12" d="M236,143a3.74,3.74,0,0,1,1.34-1.21,5.19,5.19,0,0,1,.82-.36,4.92,4.92,0,0,1,1-.25,6.4,6.4,0,0,1,1.08-.06,8.25,8.25,0,0,1,1.1.13,6,6,0,0,1,1.05.3,5,5,0,0,1,1,.42,7.4,7.4,0,0,1,.84.48c.26.17.49.35.71.51a10.09,10.09,0,0,1,1,.87l.33.36-.45-.2c-.29-.12-.66-.34-1.14-.54l-.75-.34c-.26-.13-.56-.21-.85-.34a8.08,8.08,0,0,0-.91-.3,5.09,5.09,0,0,0-.95-.24,7.81,7.81,0,0,0-1-.15c-.32,0-.64,0-.94,0a6,6,0,0,0-.87.09,7.57,7.57,0,0,0-.78.17A6.87,6.87,0,0,0,236,143Z" transform="translate(2.81 35.06)"/><polygon class="cls-6" points="235.03 425.2 240.18 442.14 221.1 453.21 249.25 453.21 247.43 425.2 235.03 425.2"/><polygon class="cls-6" points="287.27 415.46 289.85 443.12 312.3 454.04 282.5 454.04 274.33 419.3 287.27 415.46"/><path class="cls-13" d="M242.08,409.67A10.75,10.75,0,0,1,236,407.9l-17.67,10.25h28.15l-.59-9.09A11.37,11.37,0,0,1,242.08,409.67Z" transform="translate(2.81 35.06)"/><path class="cls-13" d="M287.6,408.36c-1.67,1.31-2.13,2-4.85,2a11,11,0,0,1-5.41-1.33l2.35,10h29.8Z" transform="translate(2.81 35.06)"/><path class="cls-14" d="M201.56,292.1s12.71,64,30.83,104.08c0,0,8,2.11,13.51-.81l-3.14-90.65s17.88,64.21,28.76,89.16a57.76,57.76,0,0,0,17.94-.8s-.64-94.95-6.93-109.52-16.16-40.85-16.16-40.85l-44,4.33s-19.43,43.49-18.25,60" transform="translate(2.81 35.06)"/><path class="cls-15" d="M204.08,307.08a26.24,26.24,0,0,1,0-3.2c-1.63-7.31-2.52-11.78-2.52-11.78Z" transform="translate(2.81 35.06)"/><path class="cls-15" d="M249.85,330c1.31-1.51,17.48.32,17.48.32l12.81,63.76a70,70,0,0,0,9.32-1s-.64-94.95-6.93-109.52-16.16-40.85-16.16-40.85l-44,4.33s-17.2,38.51-18.25,56.84c1.35,6,3.19,13.88,5.47,22.79,2.06-1.64,18.12,3.28,18.12,3.28s8.53,65.45,8.66,66.87c2.78.24,6.53.15,9.57-1.45l-3.14-90.65S245.61,315.63,249.85,330Z" transform="translate(2.81 35.06)"/><path class="cls-6" d="M202.15,304.73a25.16,25.16,0,0,1,0-3.36c-.38-2.87-.56-4.49-.56-4.49Z" transform="translate(2.81 35.06)"/><path class="cls-6" d="M289.71,294.66c-5.36-22.73-20.4-47.64-20.4-47.64l-48.69-.18s-17.35,36.26-18.46,54.53c.2,1.56.46,3.47.77,5.71C231.47,313.13,258.87,311.48,289.71,294.66Z" transform="translate(2.81 35.06)"/><path class="cls-13" d="M289.72,261.28c-10.13-15.5-8.73-7.08-16.38-7.08L262.92,256s-4.8-2.12-4.19-8.94c-5.85-.61-11.64-1.58-17.4-2.72a91.53,91.53,0,0,1-14.72-.22,13.45,13.45,0,0,1-3.76.52,14.48,14.48,0,0,1-2.52-.23l.3,2.26S202.19,283.73,198.51,309c0,0,6.72,15.79,64.91,12.21,0,0-4.32-31.61-3.62-61.85l10.31-.62,2.71,2.51,16.9,15.69v-3.13l-14-13.56S299.85,276.77,289.72,261.28Zm.38,3.94c-1.16-.19-12.67-9.42-15.22-7.31,0,0,3.48-6,7.91-3.07S291.25,265.42,290.1,265.22Z" transform="translate(2.81 35.06)"/><g class="cls-16"><path class="cls-6" d="M259.74,269.44a40.36,40.36,0,0,1-5.09,9.86c-5.77,8.18-12.88,14.88-20.64,21.14-8.64,7-16.64,13.67-28.09,14.56,8.05,4,24.49,8.22,57.5,6.19A468.58,468.58,0,0,1,259.74,269.44Z" transform="translate(2.81 35.06)"/></g><path class="cls-8" d="M199.21,216.09l-8,9.82s-26.55-29.83-23.46-48.5c0,0,1.38.18,2.63,4.6,0,0-2-14.06,3.45-2.74,0,0-.7-13.5,3.78-1.7l1.36,2.37s3.06-7.51,3.75-3.78-4.58,9.47-4.58,9.47C183.27,193.42,191.88,204.53,199.21,216.09Z" transform="translate(2.81 35.06)"/><path class="cls-9" d="M199.21,216.09l-8,9.82s-26.55-29.83-23.46-48.5c0,0,1.38.18,2.63,4.6,0,0-2-14.06,3.45-2.74,0,0-.7-13.5,3.78-1.7l1.36,2.37s3.06-7.51,3.75-3.78-4.58,9.47-4.58,9.47C183.27,193.42,191.88,204.53,199.21,216.09Z" transform="translate(2.81 35.06)"/><path class="cls-17" d="M284.42,207c-11.74-27.74-28-21-28-21l-.73-5.74-18.12,5.85-3.26,10.14.42-8.21-5.62-3.48-.34,3h0c-18.23-.64-27.21,26.07-27.21,26.07l-13.8-14.32c-8.27-1.45-12.55,9-12.55,9s14.06,22.17,21.56,23.71c7.82-.77,11-4.23,15.75-7.64.11,3.15,1.76,6.18,6.26,8.47l1.76,13c10.68,7.37,30.34,6.29,38.62,5.54s-.75-3.86-.06-6.73l2.48-2.2,7.49-.29c3.17,9.59,3.8,8.34,3.8,8.34,8-2.1,24-11.15,24-11.15S294.51,230.85,284.42,207Zm-14.54,29.08,2.08-13.2,4.17,8Z" transform="translate(2.81 35.06)"/><polygon class="cls-18" points="237.51 230.17 236.43 231.14 236.93 223.43 231.61 220.14 231.61 218.59 238.14 222.83 237.51 230.17"/><path class="cls-19" d="M228.52,249.61c-.38-4.77-.63-6.67-1.08-10.88-1.42-13.48-2.64-25.13.14-40.37.41-2.23,2.57-2.37,4.15-2.46,1.37-.09,2.22-.18,2.39-.83a70.11,70.11,0,0,1,2.92-9l.11-.25,19.27-6.59-.57,1.65L238,186.75a75.54,75.54,0,0,0-2.76,8.61c-.4,1.5-2,1.6-3.44,1.69-1.77.11-2.86.26-3.09,1.52-2.75,15.07-1.59,26.09-.12,40,.45,4.21.74,6.56,1.12,11.34Z" transform="translate(2.81 35.06)"/><circle class="cls-19" cx="234.29" cy="237.34" r="1.51"/><circle class="cls-19" cx="246.32" cy="237.34" r="1.51"/><circle class="cls-19" cx="233.53" cy="247.18" r="1.51"/><circle class="cls-19" cx="245.57" cy="247.18" r="1.51"/><circle class="cls-19" cx="234.29" cy="258.38" r="1.51"/><circle class="cls-19" cx="246.32" cy="258.38" r="1.51"/><circle class="cls-19" cx="235.05" cy="268.71" r="1.51"/><circle class="cls-19" cx="247.08" cy="268.71" r="1.51"/><circle class="cls-19" cx="235.8" cy="280.58" r="1.51"/><circle class="cls-19" cx="247.83" cy="280.58" r="1.51"/><path class="cls-20" d="M172.06,209.39s5.7-9.74,16.28-11.1l4.42,4.59-14.23,12.85Z" transform="translate(2.81 35.06)"/><path class="cls-21" d="M177.67,203.09a26.37,26.37,0,0,0-5.61,6.3l6.47,6.34,7.21-6.52A9.92,9.92,0,0,1,177.67,203.09Z" transform="translate(2.81 35.06)"/><path class="cls-13" d="M227.21,121s13.76,15.41,38.36,14.25l11.77-31.55s19.59,8.86,22.84-6.08-7.91-20.38-18.11-17.3c0,0-1.26-30.38-34.48-8.11,0,0-9.91-17.58-20,6.73-7,17,12.15,16.93,12.15,16.93Z" transform="translate(2.81 35.06)"/><path class="cls-4" d="M282.07,80.28S281.36,63.34,267.16,64c5.66,4.15,9.7,11,8.81,17.92C275.32,87,273.91,92,269.66,95.3A24.5,24.5,0,0,1,265.23,98c-3.52,12.15-6.72,24.37-8.46,36.89a56,56,0,0,0,8.8.29l11.77-31.55s19.59,8.86,22.84-6.08S292.27,77.2,282.07,80.28Z" transform="translate(2.81 35.06)"/><g class="cls-22"><circle class="cls-23" cx="250.04" cy="208.45" r="11.33" transform="translate(-38.39 98.08) rotate(-13.28)"/><path class="cls-24" d="M261.63,208.36a12.18,12.18,0,1,0-12.79,13.11l1.69,21.79-.4,0c-.51,0-.88.66-.83,1.38l1.64,21.24c.06.73.52,1.28,1,1.24l3.94-.3c.51,0,.88-.66.82-1.39l-1.64-21.24c-.05-.72-.51-1.28-1-1.24l-.4,0L252,221.22A12.18,12.18,0,0,0,261.63,208.36Zm-6.68,9a.93.93,0,1,1,.86-1A.93.93,0,0,1,255,217.41Zm-1.29-3.75a.93.93,0,0,1,.86-1,.93.93,0,1,1-.86,1Zm4.06.49a.93.93,0,1,1,.85-1A.94.94,0,0,1,257.72,214.15Zm-.16-3a.93.93,0,1,1,.86-1A.94.94,0,0,1,257.56,211.2Zm-.77-8a.93.93,0,1,1-.85,1A.93.93,0,0,1,256.79,203.2Zm.24,3a.93.93,0,1,1-.86,1A.93.93,0,0,1,257,206.24Zm-2.53,5.32a.93.93,0,1,1,.86-1A.94.94,0,0,1,254.5,211.56Zm-1-11a.93.93,0,1,1-.85,1A.93.93,0,0,1,253.5,200.59Zm.23,3a.93.93,0,0,1,1,.86.93.93,0,0,1-1.85.14A.93.93,0,0,1,253.73,203.56Zm.24,3a.93.93,0,1,1-.86,1A.94.94,0,0,1,254,206.6Zm-2.37,5.15a.93.93,0,1,1,.86-1A.93.93,0,0,1,251.6,211.75Zm1,1.95a.93.93,0,1,1-1-.85A.91.91,0,0,1,252.61,213.7Zm-2-12.92a.93.93,0,1,1-.86,1A.94.94,0,0,1,250.61,200.78Zm.23,3a.93.93,0,1,1-.86,1A.93.93,0,0,1,250.84,203.75Zm.23,3a.93.93,0,1,1,.14,1.85.93.93,0,0,1-.14-1.85Zm-3.63-5.86a.93.93,0,1,1-.85,1A.94.94,0,0,1,247.44,200.93Zm1.85,10a.93.93,0,0,1-1.85.14.93.93,0,1,1,1.85-.14Zm-1.62-7a.93.93,0,1,1,.14,1.85.93.93,0,0,1-.14-1.85Zm-3.58-2.65a.93.93,0,0,1,.14,1.85.93.93,0,1,1-.14-1.85Zm.23,3a.91.91,0,0,1,1,.85.93.93,0,1,1-1-.85Zm-3.07.18a.93.93,0,1,1-.85,1A.93.93,0,0,1,241.25,204.4Zm.24,3a.93.93,0,1,1-.86,1A.93.93,0,0,1,241.49,207.44Zm.69,7.91a.93.93,0,1,1,.85-1A.93.93,0,0,1,242.18,215.35ZM242,212.4a.93.93,0,1,1,.86-1A.94.94,0,0,1,242,212.4Zm2.53-5.14a.93.93,0,1,1-.85,1A.93.93,0,0,1,244.55,207.26Zm1,10.8a.93.93,0,1,1,.85-1A.92.92,0,0,1,245.54,218.06Zm-1.3-3.75a.94.94,0,0,1,.86-1,.93.93,0,0,1,.14,1.86A.94.94,0,0,1,244.24,214.31Zm.85-2.09a.93.93,0,1,1,.85-1A.92.92,0,0,1,245.09,212.22Zm2.81-5.28a.93.93,0,0,1,1,.86.91.91,0,0,1-.85,1,.93.93,0,1,1-.15-1.85Zm.55,6.06a.93.93,0,1,1-.85,1A.93.93,0,0,1,248.45,213Zm-.56,3.89a.93.93,0,1,1,1.85-.14.91.91,0,0,1-.85,1A.93.93,0,0,1,247.89,216.89Zm7.38,46.92a1.19,1.19,0,0,1-1.1,1.28l-.86.07a1.2,1.2,0,0,1-1.29-1.1l-.16-2.09a1.19,1.19,0,0,1,1.1-1.28l.87-.07a1.2,1.2,0,0,1,1.28,1.1Zm-4.21-47.07a.93.93,0,1,1,1,.85A.93.93,0,0,1,251.06,216.74Z" transform="translate(2.81 35.06)"/></g><path class="cls-8" d="M177.24,174s-1.4-3.5-2.72-1.13,1.52,8.29,3.51,7.33S177.72,176.75,177.24,174Z" transform="translate(2.81 35.06)"/><path class="cls-8" d="M173.32,175.93s-1.26-3.55-2.67-1.24,1.17,8.35,3.2,7.48S173.69,178.72,173.32,175.93Z" transform="translate(2.81 35.06)"/><path class="cls-8" d="M170.48,177.85s-1.39-3.49-2.71-1.13,1.5,8.3,3.49,7.34S171,180.63,170.48,177.85Z" transform="translate(2.81 35.06)"/><circle class="cls-6" cx="249.48" cy="208.45" r="11.33" transform="translate(-71.51 272.52) rotate(-45)"/><path class="cls-25" d="M261.07,208.36a12.18,12.18,0,1,0-12.79,13.11L250,243.26l-.4,0c-.51,0-.88.66-.83,1.38l1.64,21.24c.06.73.52,1.28,1,1.24l3.94-.3c.51,0,.88-.66.82-1.39l-1.64-21.24c-.05-.72-.51-1.28-1-1.24l-.4,0-1.69-21.79A12.18,12.18,0,0,0,261.07,208.36Zm-6.68,9a.93.93,0,1,1,.86-1A.93.93,0,0,1,254.39,217.41Zm-1.29-3.75a.93.93,0,0,1,.86-1,.93.93,0,1,1-.86,1Zm4.06.49a.93.93,0,1,1,.85-1A.94.94,0,0,1,257.16,214.15Zm-.16-3a.93.93,0,1,1,.86-1A.94.94,0,0,1,257,211.2Zm-.77-8a.93.93,0,1,1-.85,1A.93.93,0,0,1,256.23,203.2Zm.24,3a.93.93,0,1,1-.86,1A.93.93,0,0,1,256.47,206.24Zm-2.53,5.32a.93.93,0,1,1,.86-1A.94.94,0,0,1,253.94,211.56Zm-1-11a.93.93,0,1,1-.85,1A.93.93,0,0,1,252.94,200.59Zm.23,3a.93.93,0,0,1,1,.86.93.93,0,0,1-1.85.14A.93.93,0,0,1,253.17,203.56Zm.24,3a.93.93,0,1,1-.86,1A.94.94,0,0,1,253.41,206.6ZM251,211.75a.93.93,0,1,1,.86-1A.93.93,0,0,1,251,211.75Zm1,1.95a.93.93,0,1,1-1-.85A.91.91,0,0,1,252.05,213.7Zm-2-12.92a.93.93,0,1,1-.86,1A.94.94,0,0,1,250.05,200.78Zm.23,3a.93.93,0,1,1-.86,1A.93.93,0,0,1,250.28,203.75Zm.23,3a.93.93,0,0,1,1,.86.93.93,0,1,1-1-.86Zm-3.63-5.86a.93.93,0,1,1-.85,1A.94.94,0,0,1,246.88,200.93Zm1.85,10a.93.93,0,0,1-1.85.14.93.93,0,1,1,1.85-.14Zm-1.62-7a.93.93,0,1,1,.14,1.85.93.93,0,0,1-.14-1.85Zm-3.58-2.65a.93.93,0,0,1,.14,1.85.93.93,0,1,1-.14-1.85Zm.23,3a.91.91,0,0,1,1,.85.93.93,0,1,1-1-.85Zm-3.07.18a.93.93,0,1,1-.85,1A.93.93,0,0,1,240.69,204.4Zm.24,3a.93.93,0,1,1-.86,1A.93.93,0,0,1,240.93,207.44Zm.69,7.91a.93.93,0,1,1,.85-1A.94.94,0,0,1,241.62,215.35Zm-.16-2.95a.93.93,0,1,1,.86-1A.94.94,0,0,1,241.46,212.4Zm2.53-5.14a.93.93,0,1,1-.85,1A.93.93,0,0,1,244,207.26Zm1,10.8a.93.93,0,1,1,.85-1A.93.93,0,0,1,245,218.06Zm-1.3-3.75a.94.94,0,0,1,.86-1,.93.93,0,0,1,.14,1.86A.94.94,0,0,1,243.68,214.31Zm.85-2.09a.93.93,0,1,1,.85-1A.92.92,0,0,1,244.53,212.22Zm2.81-5.28a.93.93,0,0,1,1,.86.91.91,0,0,1-.85,1,.93.93,0,1,1-.15-1.85Zm.55,6.06a.93.93,0,1,1-.85,1A.93.93,0,0,1,247.89,213Zm-.56,3.89a.93.93,0,1,1,1.85-.14.91.91,0,0,1-.85,1A.93.93,0,0,1,247.33,216.89Zm7.38,46.92a1.19,1.19,0,0,1-1.1,1.28l-.86.07a1.2,1.2,0,0,1-1.29-1.1L251.3,262a1.19,1.19,0,0,1,1.1-1.28l.87-.07a1.2,1.2,0,0,1,1.28,1.1Zm-4.21-47.07a.93.93,0,1,1,1,.85A.93.93,0,0,1,250.5,216.74Z" transform="translate(2.81 35.06)"/><path class="cls-8" d="M271.88,249,268.6,238c-7.62,4.23-12.1,6.58-14.09,7.5a1.8,1.8,0,0,0-.53-.35,3.77,3.77,0,0,0-1.9-.27,4.26,4.26,0,0,0-2.21.37c-.37.16-.68.31-1,.46-1.59.7-2.77,1.71-2.35,2.55.54,1.07,1.73.7,3.21.16l-.29.34c-7,1.7-1.66,3-1.66,3-4.08,3.48,1.54,2.33,1.54,2.33-3.3.73-.85,1.34-.85,1.34C250.71,257.37,271.88,249,271.88,249Z" transform="translate(2.81 35.06)"/><path class="cls-9" d="M247.24,252.28h0c-2.82,2.79,2.16,1.77,2.16,1.77-3.3.73-.85,1.34-.85,1.34,2.19,2,23.36-6.35,23.36-6.35l-1.18-4C262.94,247.76,255,250,247.24,252.28Z" transform="translate(2.81 35.06)"/><polygon class="cls-20" points="267.9 273.03 274.69 268.33 280.76 284.85 274.33 287.77 267.9 273.03"/><path class="cls-21" d="M268.75,246.34h0l2.79,6.38,6.43-2.93-2.19-5.95A10.28,10.28,0,0,1,268.75,246.34Z" transform="translate(2.81 35.06)"/><path class="cls-26" d="M123.34,191.54,213.81,171H198s-9.48-24.1-39.11-19.36c-22.12,3.16-25.28,33.58-25.28,33.58Z" transform="translate(2.81 35.06)"/><path class="cls-27" d="M152.18,155.59s-13.83,10.27-15.41,26.47c14.22-1.18,41.48-10.27,41.48-10.27l-19-17.38S156.92,152.43,152.18,155.59Z" transform="translate(2.81 35.06)"/><path class="cls-28" d="M155.26,155.65s-11.77,7.15-14.44,16c6.22,0,22.52-11.26,22.52-11.26S158.52,154.17,155.26,155.65Z" transform="translate(2.81 35.06)"/><polygon class="cls-26" points="160.52 188.67 156.67 183.64 162.3 181.56 162.89 188.08 160.52 188.67"/></g></g></svg>