<svg xmlns="http://www.w3.org/2000/svg" xmlns:xlink="http://www.w3.org/1999/xlink" viewBox="0 0 564.28 574.7"><defs><style>.cls-1{fill:#71e2f4;}.cls-2{fill:#5353c6;}.cls-3,.cls-5{opacity:0.3;}.cls-3{fill:url(#Degradado_sin_nombre_37);}.cls-16,.cls-4{fill:#fff;}.cls-5{fill:#a9c0e8;}.cls-6{fill:#f9ccda;}.cls-7{fill:#d37897;}.cls-8{fill:url(#Nueva_muestra_de_degradado_4);}.cls-9{fill:#e28da5;}.cls-10{fill:url(#Nueva_muestra_de_degradado_4-2);}.cls-11{fill:#3535a5;}.cls-12{fill:#d3805f;}.cls-13{fill:#b2664f;}.cls-14{fill:url(#Nueva_muestra_de_degradado_4-3);}.cls-15{fill:#eabd70;}.cls-16{opacity:0.7;}</style><linearGradient id="Degradado_sin_nombre_37" x1="243.78" y1="500.2" x2="393.78" y2="500.2" gradientUnits="userSpaceOnUse"><stop offset="0" stop-color="#5353c6"/><stop offset="1" stop-color="#5353c6" stop-opacity="0.03"/></linearGradient><linearGradient id="Nueva_muestra_de_degradado_4" x1="291.12" y1="374.68" x2="291.12" y2="334.81" gradientUnits="userSpaceOnUse"><stop offset="0" stop-color="#d37897" stop-opacity="0"/><stop offset="0.9" stop-color="#bc547c"/></linearGradient><linearGradient id="Nueva_muestra_de_degradado_4-2" x1="283.58" y1="337.13" x2="283.58" y2="316.23" xlink:href="#Nueva_muestra_de_degradado_4"/><linearGradient id="Nueva_muestra_de_degradado_4-3" x1="244.29" y1="394.16" x2="270.75" y2="394.16" xlink:href="#Nueva_muestra_de_degradado_4"/></defs><title>designer</title><g id="BACKGROUND"><rect class="cls-1" width="564.28" height="574.7"/></g><g id="OBJECTS"><polygon class="cls-2" points="449.28 425.44 91.78 463.2 91.78 462.2 449.28 424.44 449.28 425.44"/><ellipse class="cls-3" cx="318.78" cy="500.2" rx="75" ry="11.5"/><polygon class="cls-4" points="331.2 416.9 148.93 431.7 148.93 202.7 331.2 217.5 331.2 416.9"/><path class="cls-5" d="M141.46,185.39c.82,7,6.63,12.74,6.94,19.76.38,8.39-6.93,14.83-13.39,20.19s-12.71,11-16.11,18.58-3.14,17.32,2.7,23.17c7,7,18.78,6.11,26.63,12,6,4.53,8.58,12.11,12.58,18.46a45.62,45.62,0,0,0,41.07,20.73c4.44-.33,9.26-1.6,11.74-5.29,3-4.46,1.37-10.55-1.31-15.2s-6.37-8.9-7.54-14.13c-2.48-11.13,7.1-21.11,16.43-27.65s20.26-13.38,22.45-24.57c2.34-11.91-6.56-23.13-16.27-30.43-5.77-4.34-12.32-8.33-15.46-14.84-2.58-5.33-2.45-11.59-4.49-17.15a23.5,23.5,0,0,0-18.17-14.81c-14.91-2.24-17.59,9.88-28.3,15.07C153,173.15,139.77,171,141.46,185.39Z" transform="translate(64.28 74.7)"/><path class="cls-6" d="M294.92,414.63c-.13,2.11-.32,4.38-1.67,6-1.58,1.93-4.29,2.42-6.76,2.79L275.68,425c-.19.54.43,1,1,1.17,2.66.9,5.56.5,8.36.21,3.24-.33,6.5-.52,9.76-.55,1.45,0,3.17-.15,3.91-1.4.55-.93.3-2.1.17-3.18-.39-3.27.53-6.61.06-9.87a1.11,1.11,0,0,0-.53-.95,1,1,0,0,0-.57,0C295.05,411,295.07,412.15,294.92,414.63Z" transform="translate(64.28 74.7)"/><path class="cls-2" d="M295.9,423.11a12.53,12.53,0,0,1-8.53,1.7c-.19,0-1.24-.26-1.43-.28-.11-.6-.05-1.18-.55-1.16-2.25.08-4.51.27-6.75.56-.71.09-3.41.16-3.7.71a1.46,1.46,0,0,0,.27,1.55,3.39,3.39,0,0,0,1.4.87c2.56,1,5.38.86,8.12.73l10.09-.47a6.68,6.68,0,0,0,3.32-.75c1.42-.92,1.91-2.78,1.94-4.47C300.15,419,296.87,422.52,295.9,423.11Z" transform="translate(64.28 74.7)"/><path class="cls-6" d="M279.84,267.56s12.23-.71,12.2-1c-.28-3.56-3.5-8.83-1.83-12s3-5,4.64-8.09c.25-.47.47-1.1.09-1.47a1.29,1.29,0,0,0-1.24-.08c-2.23.67-4.44,1.43-6.6,2.3-3.67,1.47-7.13,1.43-7.26,5.31C279.71,256.77,279.84,267.56,279.84,267.56Z" transform="translate(64.28 74.7)"/><path class="cls-6" d="M242.2,420.28c-.4,2.08-.89,4.3-2.44,5.75-1.82,1.71-4.57,1.84-7.07,1.87l-10.93.15c-.25.51.31,1,.81,1.28,2.53,1.25,5.46,1.24,8.27,1.32q4.89.14,9.75.73c1.43.18,3.16.27,4-.87.67-.85.57-2,.59-3.13,0-3.3,1.39-6.48,1.36-9.78,0-.38-.07-.83-.41-1a1,1,0,0,0-.56-.07C242.81,416.71,242.68,417.84,242.2,420.28Z" transform="translate(64.28 74.7)"/><path class="cls-7" d="M302.21,320.12s-2.44,18-3.36,31.71,3.66,43.31,3.36,51.24a41,41,0,0,1-2.14,12.5h-7s-8.54-36.9-8.85-44.83-5.49-48.49-5.49-48.49Z" transform="translate(64.28 74.7)"/><path class="cls-8" d="M302.21,320.12l-13.38,1.21A22.58,22.58,0,0,0,280,332.76c1.33,10.75,3.28,26.93,3.95,34.75a10.32,10.32,0,0,0,1.84.09,20.67,20.67,0,0,0,9.85-3.45,37.15,37.15,0,0,0,3.21-2.2,95.42,95.42,0,0,1,0-10.12C299.77,338.11,302.21,320.12,302.21,320.12Z" transform="translate(64.28 74.7)"/><path class="cls-2" d="M208.75,254.21a.66.66,0,0,1-1.3.25c-2.94-10.59-9.72-37.43-9.63-41.12a6.57,6.57,0,0,1,1.73-4h2.1a7.2,7.2,0,0,1,1.92,4C203.7,214.94,207.63,243.59,208.75,254.21Z" transform="translate(64.28 74.7)"/><path class="cls-6" d="M281.11,227.3c-1.37,2.57-3.06,5.53-5.94,5.91a3.41,3.41,0,0,0-1.35.3c-.74.44-.8,1.48-.77,2.34l.36,9.88c.11,3,.5,6.52,3.07,8.08,1.85,1.12,4.2.8,6.32.39a24.57,24.57,0,0,0,5-1.36c4.95-2.1,8.25-7,9.79-12.16,1.21-4.05,1.45-8.58-.35-12.41C293.73,220.82,285,220.06,281.11,227.3Z" transform="translate(64.28 74.7)"/><path class="cls-9" d="M298.85,319.3c-1.37.2-2.73.44-4.08.71a2.11,2.11,0,0,0-.87-.31,52,52,0,0,0-28.13,2.11c-4.63,14.11-17,65.05-19.62,71.92-3.06,8.11-5,16.6-7,25A46.56,46.56,0,0,0,248,420.1c10.83-25.63,15.47-24.32,17.07-41.39.32-3.47,4.89-9.31,6.89-12.15,9.53-13.46,25.7-32.28,28.22-36.27C302.4,326.73,306.87,318.14,298.85,319.3Z" transform="translate(64.28 74.7)"/><path class="cls-10" d="M298.85,319.3c-1.37.2-2.73.44-4.08.71a2.11,2.11,0,0,0-.87-.31,52,52,0,0,0-28.13,2.11c-.57,1.75-1.27,4.08-2,6.82,3.09,1.86,8.13,3.64,16.32,4.13,8.56.51,16.29-2.66,22.18-6.28C303.92,322.72,304.64,318.47,298.85,319.3Z" transform="translate(64.28 74.7)"/><path class="cls-6" d="M209.32,231a2.92,2.92,0,0,0-.89-1.65,2.41,2.41,0,0,0-2.33-.07,19.32,19.32,0,0,1-2.24,1c-1.41.38-3.1-.13-4.27.75a2.21,2.21,0,0,0-.79,2.28,8.75,8.75,0,0,0,.54,1.21c.61,1.38.5,3.06,1.39,4.27a6.24,6.24,0,0,0,2.86,1.82l7.74,3.08a.64.64,0,0,0,.52.05.63.63,0,0,0,.26-.35c1.08-2.69.61-4-.74-6.16C210.2,235.35,209.87,233.14,209.32,231Z" transform="translate(64.28 74.7)"/><path class="cls-4" d="M279.15,232c-1.08,3.51-2.79,6.09-3.83,5.77s-1-3.42.08-6.92,2.79-6.08,3.82-5.76S280.22,228.52,279.15,232Z" transform="translate(64.28 74.7)"/><path class="cls-11" d="M275.5,238.07a1.09,1.09,0,0,1-.25,0c-.63-.19-.95-1.06-.93-2.51a17.2,17.2,0,0,1,.84-4.72,17.4,17.4,0,0,1,2-4.38c.8-1.21,1.55-1.75,2.18-1.55s.94,1.06.93,2.5a18.12,18.12,0,0,1-.84,4.73,17.93,17.93,0,0,1-2,4.38C276.73,237.53,276.07,238.07,275.5,238.07Zm3.55-12.74c-.31,0-.84.35-1.51,1.36a16.89,16.89,0,0,0-1.9,4.25,16.7,16.7,0,0,0-.82,4.59c0,1.35.28,1.93.57,2s.87-.22,1.62-1.35a17.25,17.25,0,0,0,1.9-4.25,17.43,17.43,0,0,0,.82-4.58c0-1.36-.29-1.94-.58-2Z" transform="translate(64.28 74.7)"/><path class="cls-2" d="M242.06,428.82a12.59,12.59,0,0,1-8.68.56c-.19-.05-1.2-.42-1.38-.46,0-.61.1-1.19-.39-1.23q-3.37-.31-6.76-.33c-.72,0-3.41-.29-3.76.22a1.45,1.45,0,0,0,.06,1.57,3.43,3.43,0,0,0,1.27,1.05c2.41,1.3,5.22,1.56,8,1.79l10.07.85a6.57,6.57,0,0,0,3.39-.3c1.53-.73,2.26-2.5,2.51-4.18C246.81,425.32,243.1,428.36,242.06,428.82Z" transform="translate(64.28 74.7)"/><path class="cls-2" d="M306.06,268.53c-3.55-3.17-7.59-6.54-12.36-6.47-1.58,0-25.9-5.44-28.73-5.66-18.87-1.47-34.25-16.55-53-19-1.86.6-2.48,3.12-1.72,4.93s2.44,3,4.06,4.12C231.17,258,247.56,269,265.92,278c-4.23,10.94,6,16.66,5.26,19.37-.77,2.9-7.7,22-6.94,24.94,6.84,2.11,12.29,2.39,19.42,3s14.77-.69,20.82-4.52c-.66-3.54-3.83-6.81-1.41-8.11,6.95-4.42,13.69-7.75,18.28-14.59a11,11,0,0,0,1.92-4.32C323.92,289.45,311.13,273.05,306.06,268.53ZM302,305c.89-4,5.39-15.89,5.39-15.89,2,1.06,4.35,5.12,4.35,5.12S304,303.65,302,305Z" transform="translate(64.28 74.7)"/><path class="cls-4" d="M201.93,209.23a3.46,3.46,0,0,1-4.12-.71,2.37,2.37,0,0,1-.63-2.6c.92-2.38,2.64-5.16,1.85-6.74s-.8-1.46-.8-1.59,4.38,2.46,5,4.63C204.58,206.63,203.33,208.46,201.93,209.23Z" transform="translate(64.28 74.7)"/><path class="cls-6" d="M207.59,224.1a1.81,1.81,0,0,0-.94-1.17,1.27,1.27,0,0,0-1.47.83,3.76,3.76,0,0,0-.12,1.83c.17,1.71.35,3.42.52,5.13.1,1,.31,2.11,1.21,2.51a1.7,1.7,0,0,0,2-.55c.88-1.08.3-2.35.12-3.56A21.75,21.75,0,0,0,207.59,224.1Z" transform="translate(64.28 74.7)"/><path class="cls-2" d="M203.7,204.25a15.05,15.05,0,0,0-.44-2c-.65-2.17-5-4.76-5-4.63s0,.06,0,.12l0,.07c.08.15.27.49.73,1.4.75,1.51-.76,4.09-1.71,6.39a1,1,0,0,0,.89.06c.64-.28,1-1.23,1.68-1.14,1,.14.6,2,1.52,2.35.57.23,1.14-.34,1.37-.91a3.82,3.82,0,0,1,.81-1.62A.39.39,0,0,1,203.7,204.25Z" transform="translate(64.28 74.7)"/><line class="cls-4" x1="342.6" y1="307.46" x2="347.36" y2="310.2"/><rect class="cls-11" x="280.45" y="231.39" width="0.5" height="5.49" transform="translate(1.93 435.05) rotate(-60.03)"/><path class="cls-12" d="M306.26,227.57a27,27,0,0,0-9.13-5.52,20.6,20.6,0,0,0-8-1.91,7.72,7.72,0,0,0-8,9.74c.25,1.36.84,4.3,1.89,5.31.88.84,2.28.27,3,1.51a3.77,3.77,0,0,1,.19,2.9,4.62,4.62,0,0,1-1.61,2.59,3.13,3.13,0,0,1-.78.38,2.85,2.85,0,0,0-2,3.11,14.23,14.23,0,0,0,2.37,6.14,8.93,8.93,0,0,0,1,1.21c-.08.63-.25,1.26-.34,1.89-.26,1.86.54,4.1,2.35,4.59a4.22,4.22,0,0,1-1.31-2.52c0-1,.84-2,1.78-1.75a2,2,0,0,1,1.23,1.8,6.25,6.25,0,0,1-1.41,4.95,9.94,9.94,0,0,0,3.32-2.54c.9-1.23,1.21-2.81,2.13-4a6.37,6.37,0,0,1,.66-.71c.11.14.22.29.32.44.74,1.08.81,1.79.24,3.53a14.36,14.36,0,0,1-.7,1.3,4.39,4.39,0,0,0,1.05-5.93,11.48,11.48,0,0,0,1.54-.36c3.77-1.19,6.52-4.38,9.05-7.42,2.25-2.68,4.58-5.58,5-9S308.78,230.11,306.26,227.57Z" transform="translate(64.28 74.7)"/><path class="cls-11" d="M306.06,268.53a33.65,33.65,0,0,0-6.85-5.07c1,1.87,2.61,3.7,3.1,5.81a27.28,27.28,0,0,1,.51,5.64q.14,6,.26,12.1c.06,2.74.09,5.6-1.14,8-1.37,2.71-4.07,4.46-6.73,5.91a3.72,3.72,0,0,0-1.55,1.24c-.7,1.18.15,2.72,1.23,3.57s2.44,1.39,3.29,2.48l.12,15.42a28.26,28.26,0,0,0,6.18-2.87c-.66-3.54-3.83-6.81-1.41-8.11,6.95-4.42,13.69-7.75,18.28-14.59a11,11,0,0,0,1.92-4.32C323.92,289.45,311.13,273.05,306.06,268.53ZM302,305c.89-4,5.39-15.89,5.39-15.89,2,1.06,4.35,5.12,4.35,5.12S304,303.65,302,305Z" transform="translate(64.28 74.7)"/><path class="cls-2" d="M308.7,280.36c.39.38-1.47,7.47-1.58,8.45,0,.32-.05.68-.06,1,.18-.48.29-.75.29-.75,2,1.06,4.35,5.12,4.35,5.12S304,303.65,302,305l0-.13-.71,1.27c-.43.76-.58,2.09.29,2.15a1.31,1.31,0,0,0,.85-.39l5.66-4.52a24,24,0,0,0,2.87-2.55,25.18,25.18,0,0,0,3-4.36l2.17-3.7a3.36,3.36,0,0,0,.64-1.9,3.23,3.23,0,0,0-.59-1.36A51.26,51.26,0,0,0,308.7,280.36Z" transform="translate(64.28 74.7)"/><path class="cls-11" d="M271.71,275.61c2.24-1.31,4.61-2.75,5.7-5.11.53-1.17.77-2.57,1.78-3.36a33.07,33.07,0,0,1,5.2,9.27,7.68,7.68,0,0,1,.6,4,3.13,3.13,0,0,1-2.75,2.66,4.81,4.81,0,0,1-1.87-.52c-3.28-1.45-9.15-3.09-11.46-5.78A13.32,13.32,0,0,0,271.71,275.61Z" transform="translate(64.28 74.7)"/><path class="cls-11" d="M276.66,297.9c-1.67-.83-4.08-2.22-6-2.32a2.51,2.51,0,0,1,.56,1.82c-.4,1.52-2.49,7.48-4.29,13.24a11.73,11.73,0,0,0,4.14-1.13c3-1.25,6.1-2.72,7.86-5.45a4.22,4.22,0,0,0,.63-3.86A5.31,5.31,0,0,0,276.66,297.9Z" transform="translate(64.28 74.7)"/><path class="cls-11" d="M275.41,272.1a10.78,10.78,0,0,0-4.24-.48,38.73,38.73,0,0,1-19.61-5.3c-3.72-2.18-7.1-5-11.09-6.64-3.25-1.34-6.82-1.85-9.94-3.47-2.61-1.36-4.77-3.43-7.07-5.27-1.54-1.23-8.53-6.78-12.07-6.86a15.83,15.83,0,0,0,2.9,2.36C231.17,258,247.56,269,265.92,278a14.63,14.63,0,0,0-.63,2,6.94,6.94,0,0,0,.77-.08c2-.37,3.74-1.47,5.7-1.87,2.17-.44,5.1-.46,5.68-2.6A3.12,3.12,0,0,0,275.41,272.1Z" transform="translate(64.28 74.7)"/><path class="cls-13" d="M304.22,225.82c-4,.13-7.37,2.32-7.11,7.81.07,1.44.54,2.83.69,4.26.6,5.77-3.92,10.62-6.63,15.75-.88,1.68-1.52,3.9-.27,5.32l.07.06a35.74,35.74,0,0,1,1.87-3.58,6.37,6.37,0,0,1,.66-.71c.11.14.22.29.32.44.74,1.08.81,1.79.24,3.53a14.36,14.36,0,0,1-.7,1.3,4.39,4.39,0,0,0,1.05-5.93,11.48,11.48,0,0,0,1.54-.36c3.77-1.19,6.52-4.38,9.05-7.42,2.25-2.68,4.58-5.58,5-9s-1.24-7.13-3.76-9.67A17.79,17.79,0,0,0,304.22,225.82Z" transform="translate(64.28 74.7)"/><circle class="cls-12" cx="308.08" cy="232.41" r="9.91" transform="translate(80.46 559.54) rotate(-77.88)"/><path class="cls-14" d="M248,420.1c10.83-25.63,15.47-24.32,17.07-41.39.27-2.89,3.47-7.41,5.7-10.49-.35.16-.71.34-1.08.55-6.42,3.7-10.75,10.47-13.46,17.19-3.55,8.78-5.14,18.31-9.35,26.79-1.09,2.19-2.34,4.66-2.57,7A35.54,35.54,0,0,0,248,420.1Z" transform="translate(64.28 74.7)"/><path class="cls-4" d="M311.74,194.93a11,11,0,1,0-20.31,1.54,19.35,19.35,0,0,1,1.95,6.59l.15,1.51-.61,2,2.73.84,1.41.44,2.73.84.62-2,.65-.78a22.4,22.4,0,0,1,5.83-4.82A10.9,10.9,0,0,0,311.74,194.93Z" transform="translate(64.28 74.7)"/><rect class="cls-2" x="292.29" y="205.58" width="7.72" height="5.39" transform="translate(139.05 -3.52) rotate(17.19)"/><polygon class="cls-2" points="361.77 283.12 359.68 282.48 361.36 263.6 362.23 263.68 360.61 281.85 361.34 282.07 369.95 265.69 370.72 266.1 361.77 283.12"/><circle class="cls-2" cx="359.6" cy="285.67" r="1.72"/><rect class="cls-4" x="302.63" y="172.76" width="8.97" height="0.63" transform="translate(115.29 490.02) rotate(-72.81)"/><rect class="cls-4" x="318.35" y="190.49" width="0.63" height="8.97" transform="translate(102.51 516.48) rotate(-72.81)"/><rect class="cls-4" x="284.89" y="180.14" width="0.63" height="8.97" transform="translate(88.83 477.24) rotate(-72.81)"/><rect class="cls-4" x="292.44" y="170.41" width="0.63" height="8.97" transform="translate(16.05 254.25) rotate(-31.64)"/><rect class="cls-4" x="312.36" y="180.3" width="8.97" height="0.63" transform="translate(16.62 267.61) rotate(-31.62)"/><polygon class="cls-9" points="351.78 236.19 320.78 234.7 320.78 185.7 351.78 188.21 351.78 236.19"/><polygon class="cls-9" points="159.57 317.19 137.78 316.14 137.78 281.7 159.57 283.46 159.57 317.19"/><polygon class="cls-2" points="165.27 336.19 147.78 335.35 147.78 307.7 165.27 309.11 165.27 336.19"/><polygon class="cls-15" points="310.43 234.02 283.12 235.03 283.12 200.7 310.43 201.71 310.43 234.02"/><polygon class="cls-15" points="227.44 440.85 200.13 441.87 200.13 407.53 227.44 408.54 227.44 440.85"/><path class="cls-4" d="M362.26,189.07l-2-.34a12.18,12.18,0,0,0-.8-1.94l1.17-1.64a1.75,1.75,0,0,0-.19-2.26l-1.77-1.77a1.74,1.74,0,0,0-2.26-.19l-1.65,1.17a10.34,10.34,0,0,0-2-.82l-.33-2a1.74,1.74,0,0,0-1.73-1.46h-2.5a1.75,1.75,0,0,0-1.74,1.46l-.34,2a10.27,10.27,0,0,0-1.93.82L342.55,181a1.74,1.74,0,0,0-2.26.19l-1.78,1.77a1.76,1.76,0,0,0-.19,2.26l1.19,1.67a10.91,10.91,0,0,0-.79,2l-2,.33a1.75,1.75,0,0,0-1.47,1.73v2.51a1.75,1.75,0,0,0,1.47,1.73l2,.34a11.36,11.36,0,0,0,.81,1.94L338.41,199a1.76,1.76,0,0,0,.19,2.27l1.77,1.77a1.74,1.74,0,0,0,1.24.51,1.76,1.76,0,0,0,1-.32L344.3,202a11.42,11.42,0,0,0,1.88.77l.33,2a1.74,1.74,0,0,0,1.73,1.46h2.51a1.76,1.76,0,0,0,1.74-1.46l.33-2a11,11,0,0,0,1.94-.8l1.65,1.18a1.77,1.77,0,0,0,2.26-.19l1.77-1.77a1.76,1.76,0,0,0,.19-2.27l-1.18-1.65a11.36,11.36,0,0,0,.81-1.94l2-.33a1.75,1.75,0,0,0,1.47-1.73V190.8A1.73,1.73,0,0,0,362.26,189.07ZM349.5,198a5.95,5.95,0,1,1,5.95-5.94A5.95,5.95,0,0,1,349.5,198Z" transform="translate(64.28 74.7)"/><path class="cls-16" d="M341.81,154.14l-1.63-.28a8.78,8.78,0,0,0-.66-1.58l1-1.35a1.43,1.43,0,0,0-.15-1.85l-1.45-1.45a1.43,1.43,0,0,0-1-.42,1.37,1.37,0,0,0-.83.27l-1.35,1a9.31,9.31,0,0,0-1.64-.68l-.28-1.61a1.42,1.42,0,0,0-1.42-1.2h-2a1.42,1.42,0,0,0-1.42,1.2l-.28,1.65a8.82,8.82,0,0,0-1.58.67l-1.34-1a1.46,1.46,0,0,0-.84-.26,1.41,1.41,0,0,0-1,.42l-1.46,1.45a1.44,1.44,0,0,0-.15,1.85l1,1.37a9.15,9.15,0,0,0-.65,1.59l-1.61.27a1.43,1.43,0,0,0-1.2,1.42v2a1.42,1.42,0,0,0,1.2,1.41l1.65.29a9.48,9.48,0,0,0,.67,1.58l-1,1.33a1.43,1.43,0,0,0,.16,1.85l1.44,1.45a1.46,1.46,0,0,0,1,.42,1.43,1.43,0,0,0,.83-.26l1.37-1a9.33,9.33,0,0,0,1.53.64l.28,1.63a1.43,1.43,0,0,0,1.42,1.2h2.05a1.45,1.45,0,0,0,1.42-1.2l.27-1.63a9.19,9.19,0,0,0,1.59-.66l1.35,1a1.37,1.37,0,0,0,.83.27,1.43,1.43,0,0,0,1-.42l1.45-1.45a1.45,1.45,0,0,0,.15-1.86l-1-1.35a9.43,9.43,0,0,0,.66-1.58l1.63-.27a1.45,1.45,0,0,0,1.2-1.42v-2.05A1.43,1.43,0,0,0,341.81,154.14Zm-10.45,7.31a4.87,4.87,0,1,1,4.87-4.87A4.87,4.87,0,0,1,331.36,161.45Z" transform="translate(64.28 74.7)"/></g></svg>