<svg xmlns="http://www.w3.org/2000/svg" xmlns:xlink="http://www.w3.org/1999/xlink" viewBox="0 0 734 632.66"><defs><style>.cls-1{fill:url(#linear-gradient);}.cls-2{fill:#f58a28;}.cls-3{fill:#f05757;}.cls-4{fill:#f6bc9f;}.cls-5{fill:#fffaef;}.cls-6{fill:#d2373a;}.cls-7{fill:#e67f69;}.cls-8{fill:#f05a28;}.cls-9{fill:#3c2a34;}.cls-10,.cls-17{opacity:0.5;}.cls-10{fill:url(#linear-gradient-2);}.cls-11{fill:#eb3a27;}.cls-12{fill:#e9946f;}.cls-13{fill:#514e78;}.cls-14{fill:#52668a;}.cls-15{fill:#e86f52;}.cls-16{fill:#6d584f;}.cls-17{fill:url(#linear-gradient-3);}.cls-18{fill:#ffcc05;}.cls-19{font-size:86.85px;letter-spacing:-0.01em;}.cls-19,.cls-23{fill:#fffdf2;font-family:Pineapple-Monoline, Pineapple;}.cls-20{letter-spacing:-0.03em;}.cls-21{letter-spacing:-0.02em;}.cls-22{letter-spacing:0em;}.cls-23{font-size:77.8px;letter-spacing:-0.05em;}.cls-24{letter-spacing:0em;}.cls-25{letter-spacing:-0.03em;}.cls-26{letter-spacing:-0.01em;}.cls-27{letter-spacing:0em;}.cls-28{fill:#dbeccc;}</style><linearGradient id="linear-gradient" x1="367" y1="632.66" x2="367" gradientUnits="userSpaceOnUse"><stop offset="0" stop-color="#49ce62"/><stop offset="1" stop-color="#66e2cc"/></linearGradient><linearGradient id="linear-gradient-2" x1="427.44" y1="429.72" x2="416.33" y2="438.42" gradientUnits="userSpaceOnUse"><stop offset="0" stop-color="#f6bc9f"/><stop offset="1" stop-color="#e25526"/></linearGradient><linearGradient id="linear-gradient-3" x1="300.17" y1="432.64" x2="310.97" y2="440.04" xlink:href="#linear-gradient-2"/></defs><title>lang</title><g id="BACKGROUND"><rect class="cls-1" width="734" height="632.66"/></g><g id="OBJECTS"><path class="cls-2" d="M321.48,214.69S356.91,208.6,368,227.9C368,227.9,362.34,200.88,321.48,214.69Z" transform="translate(119.34 132.66)"/><path class="cls-3" d="M354,387s-35.78,25.18-39.45,113h20.14Z" transform="translate(119.34 132.66)"/><path class="cls-4" d="M298.41,388.62c.42,1.18-16.88,22.86-43.61,17.19l-1.21-7.38s24,5.9,41.41-12.16Z" transform="translate(119.34 132.66)"/><path class="cls-4" d="M324.7,495.86,306.48,376s-35.19,11.46-40.2-17.27l-5.36,3.84s7,20.89,23.74,22.32c0,0-14.62,8.47-26.51-15.37l-6.38,6.81s9.81,18.65,32.45,12.54c0,0-22.66,4.77-33-7.63L248.38,389s24.38,16.34,45.36,4.94l-7.24,104.1Z" transform="translate(119.34 132.66)"/><polygon class="cls-4" points="473.81 395.79 478.01 531.35 510.58 527.01 505.51 389.06 473.81 395.79"/><path class="cls-5" d="M394.18,370.49l-37.59,4.76L328.85,499.88l98.88-.28S440.8,433,394.18,370.49Z" transform="translate(119.34 132.66)"/><path class="cls-3" d="M390.06,371,372.85,500h56.57S435.75,385,390.06,371Z" transform="translate(119.34 132.66)"/><path class="cls-4" d="M350.73,403.1s25,4.14,39.33-32.09l-32.33-2.68Z" transform="translate(119.34 132.66)"/><polygon class="cls-6" points="510.58 515.88 519.75 549.88 509.4 549.88 504.29 564.71 506.36 545.5 513.97 545.5 510.58 515.88"/><polygon class="cls-6" points="466.65 526.03 454.75 552.93 461.52 552.93 461.52 561.06 464.51 549.25 460.69 549.25 466.65 526.03"/><polygon class="cls-7" points="475.26 510.9 509.4 485.07 509.4 449.96 477.18 485.88 475.26 510.9"/><path class="cls-8" d="M377.91,233.67s32.88-8,38,32.32-30.55,55.18-30.55,55.18Z" transform="translate(119.34 132.66)"/><path class="cls-4" d="M318,241.33l-30,76.28,29.7-2.85.81,14.7s41.39,14.35,43.4-7.46c0,0,0,25.73-43.4,26.49l1,19.12s70.67,4.71,62.91-53.72-5.89-65.95-5.89-65.95L318,241.33Z" transform="translate(119.34 132.66)"/><path class="cls-9" d="M334.39,278s-1.58,23.78-11.43,16.57c-3.59-2.63.49-19.45.49-19.45s.56,14.4,2.5,15.32C329.54,292.14,334.39,278,334.39,278Z" transform="translate(119.34 132.66)"/><path class="cls-7" d="M353.91,294.62a7.26,7.26,0,1,1-8.12-6.29A7.26,7.26,0,0,1,353.91,294.62Z" transform="translate(119.34 132.66)"/><path class="cls-8" d="M387,250.22l-91.95-11.17s0-16.26,31.84-16.09l-16.59-9.08S373.83,187.14,387,250.22Z" transform="translate(119.34 132.66)"/><path class="cls-8" d="M387.32,274.89l-3.84-33.17-20.07-2S338.4,294.61,387.32,274.89Z" transform="translate(119.34 132.66)"/><path class="cls-4" d="M404.22,284.3a9.67,9.67,0,1,1-10.82-8.37A9.67,9.67,0,0,1,404.22,284.3Z" transform="translate(119.34 132.66)"/><path class="cls-8" d="M323.13,259.74l21.23.35s-2.1-8.22-20.94-8.23Z" transform="translate(119.34 132.66)"/><polygon class="cls-3" points="407.27 549.88 431.81 548.09 445.3 632.66 405.06 632.66 407.27 549.88"/><polygon class="cls-6" points="402.07 542.63 433.96 542.63 437.16 551.83 405.06 553.81 402.07 542.63"/><polygon class="cls-3" points="520.6 509.81 593.94 570.24 582.24 632.66 546.93 632.66 560.63 580.78 527.8 558.85 520.6 509.81"/><polygon class="cls-6" points="560.63 580.78 524.25 555.4 565.38 577.19 549 630.72 548.75 623.51 560.63 580.78"/><path class="cls-2" d="M385,237.48s25.76,10.64,25.67,35.47C410.62,273,419.33,236.55,385,237.48Z" transform="translate(119.34 132.66)"/><path class="cls-2" d="M300.44,234.81s7.81-6.94,25.82-5.57C326.26,229.24,314,217.39,300.44,234.81Z" transform="translate(119.34 132.66)"/><polygon class="cls-10" points="424.29 407.02 407.27 450.27 436.97 447.42 424.29 407.02"/><path class="cls-7" d="M400.05,283.26s-8.55-4.7-10.89,10.33C389.16,293.59,394.79,283.15,400.05,283.26Z" transform="translate(119.34 132.66)"/><path class="cls-8" d="M317.82,318.2s40.3,10.36,56.58-21.7-2.2-49-2.2-49l13.82-.52s32,125.56-68.2,129.83Z" transform="translate(119.34 132.66)"/><path class="cls-5" d="M314.12,326.29s31.55,4.91,42.85-7.74c0,0,3.12,35.86-41.55,31.26Z" transform="translate(119.34 132.66)"/><path class="cls-11" d="M321.48,364.27s43.32.77,61.42-35.58c0,0-5.82,41.72-61.42,45.31Z" transform="translate(119.34 132.66)"/><path class="cls-4" d="M201.61,410.22c-.54,1.14,14.3,24.56,41.49,21.83l2-7.21s-24.45,3.27-39.85-16.58Z" transform="translate(119.34 132.66)"/><polygon class="cls-12" points="255.32 516.67 327.82 609.94 308.17 627.15 266.35 571.91 255.32 516.67"/><path class="cls-13" d="M137.25,384.79l34.11,44.73-17.05,16.53S129.07,418.8,137.25,384.79Z" transform="translate(119.34 132.66)"/><path class="cls-14" d="M136.58,383.22l33.34,78.11H145.17L159.46,500l-86.6,0s-13.08-57.95,33.33-121.76Z" transform="translate(119.34 132.66)"/><path class="cls-4" d="M136.58,383.22,147,407.66s-31.77,13.79-43.29-26l2.47-7.71Z" transform="translate(119.34 132.66)"/><polygon class="cls-4" points="259.19 410.48 255.55 527.89 225.53 510.9 231.72 404.65 259.19 410.48"/><path class="cls-7" d="M137.9,358.48s-14.63-9.69-17.36-22.5l-5,27,21.31,11.88Z" transform="translate(119.34 132.66)"/><path class="cls-12" d="M188.83,494.49l-17.47-119.2s37,1.54,34-27.47l6.2,2.25s-1.08,22-16.83,27.9c0,0,16.36,4.21,21.38-22l8,4.84s-4.41,20.6-27.87,20.83c0,0,23.12-1.52,29.71-16.24l4.84,6.68s-19.07,22.32-42.34,17l25.41,100.16Z" transform="translate(119.34 132.66)"/><path class="cls-4" d="M166.13,500,195,396.82S228.69,412,236.78,384l4.92,4.4s-9.2,20-26,19.62c0,0,13.61,10,28-12.41l5.61,7.47s-11.77,17.47-33.63,8.94c0,0,22,7.21,33.63-4l2,8s-26,13.61-45.63,0l-14.49,84Z" transform="translate(119.34 132.66)"/><polygon class="cls-4" points="225.53 531.35 310.53 632.66 276.02 632.66 200.11 560.27 225.53 531.35"/><path class="cls-14" d="M103.72,394.27l36.13,39.57-24,36L78.12,434S90,402,103.72,394.27Z" transform="translate(119.34 132.66)"/><path class="cls-9" d="M159.1,237.53s47.07-3.9,22.77,57.37C181.87,294.9,140.53,254.79,159.1,237.53Z" transform="translate(119.34 132.66)"/><path class="cls-4" d="M162,243.38,191.19,319l-15.62-2.87,2.34,12.54s-23.55,10.09-29.72-7.86c0,0-3,32.14,33.62,23.87L184.93,361s-63.61,18.47-69.07-32.3-3.48-56.7-3.48-56.7l42.41-24.68Z" transform="translate(119.34 132.66)"/><path class="cls-15" d="M156.14,330s4.89-11.59,6.62-11.24,3.12,8,3.12,8,1-10.07,3.82-8S174.15,330,174.15,330,163.41,333.61,156.14,330Z" transform="translate(119.34 132.66)"/><path class="cls-15" d="M176.79,345.62s4.29,7.43-4,6.74a12.81,12.81,0,0,1-10.87-7.6A37.32,37.32,0,0,0,176.79,345.62Z" transform="translate(119.34 132.66)"/><path class="cls-9" d="M157.6,280.59s12.64,20.21.43,20.13c-4.45,0-11-16.06-11-16.06s8.88,11.35,11,11C162,294.9,157.6,280.59,157.6,280.59Z" transform="translate(119.34 132.66)"/><path class="cls-7" d="M145.17,309.75a7.27,7.27,0,1,1-7.27-7.26A7.27,7.27,0,0,1,145.17,309.75Z" transform="translate(119.34 132.66)"/><path class="cls-9" d="M122.2,315.61,126.72,402,67.31,384S41.36,198.18,166.13,237.88C166.13,237.88,122.2,270.53,122.2,315.61Z" transform="translate(119.34 132.66)"/><path class="cls-13" d="M109,402l28.92,34.33A116.53,116.53,0,0,1,109,402Z" transform="translate(119.34 132.66)"/><path class="cls-13" d="M87,436.33l33.55,29S103.72,462,87,436.33Z" transform="translate(119.34 132.66)"/><path class="cls-4" d="M123,459.09" transform="translate(119.34 132.66)"/><polygon class="cls-12" points="258.03 569.93 246.06 596.53 276.02 632.66 237.84 597.4 258.03 569.93"/><path class="cls-9" d="M162,243.38S151,285.49,120.54,312C120.54,312,91,237.53,162,243.38Z" transform="translate(119.34 132.66)"/><path class="cls-4" d="M125.54,319a9.68,9.68,0,1,1-9.68-9.67A9.67,9.67,0,0,1,125.54,319Z" transform="translate(119.34 132.66)"/><path class="cls-9" d="M159.1,274.62S152,268.24,147,280.46Z" transform="translate(119.34 132.66)"/><path class="cls-16" d="M123,236.72s-25,7-42.27,58.94C80.77,295.66,85.88,245.9,123,236.72Z" transform="translate(119.34 132.66)"/><polygon class="cls-17" points="293.84 408.51 310.53 451.68 294.91 448.82 293.84 408.51"/><path class="cls-7" d="M122.08,323.79s.12-9.75-14.24-4.74C107.84,319.05,119.7,319.1,122.08,323.79Z" transform="translate(119.34 132.66)"/><path class="cls-16" d="M171.36,243.38s14.88,15.41,11.49,35.79C182.85,279.17,194.59,253.26,171.36,243.38Z" transform="translate(119.34 132.66)"/><path class="cls-9" d="M125.37,300.72l1.35,28.16S115.14,308.65,125.37,300.72Z" transform="translate(119.34 132.66)"/><path class="cls-18" d="M263.2,166.8c0-44.39-22-74.3-123.72-67-53.12,3.8-80.94,28.25-80.94,63.1s24.82,62.76,80.94,63.1c28.29.17,50.76-1.27,68.36-4.53-1,14.51-5.77,28.91-17,41.41,0,0,18-3,37.46-33.62a51.36,51.36,0,0,0,6.51-15.84C255.29,203.91,263.2,188.73,263.2,166.8Z" transform="translate(119.34 132.66)"/><text class="cls-19" transform="translate(225.53 323.71)">H<tspan class="cls-20" x="31.18" y="0">O</tspan><tspan class="cls-21" x="59.06" y="0">L</tspan><tspan class="cls-22" x="83.38" y="0">A</tspan></text><text x="119.34" y="132.66"></text><text x="119.34" y="132.66"></text><text x="119.34" y="132.66"></text><path class="cls-14" d="M305.47,74.89c-55.56,3.8-84.67,28.25-84.67,63.1,0,20.62,9.1,38.82,28.7,50.31a54.66,54.66,0,0,0,7.72,22.58c19.44,30.62,37.47,33.61,37.47,33.61-12.4-13.82-17-30-17.16-46a148.42,148.42,0,0,0,27.94,2.63c98.15.56,129.43-16.54,129.43-59.18C434.9,97.52,411.85,67.61,305.47,74.89Z" transform="translate(119.34 132.66)"/><text class="cls-23" transform="translate(386.28 296.13)">S<tspan class="cls-24" x="27.62" y="0">A</tspan><tspan class="cls-25" x="57.26" y="0">L</tspan><tspan class="cls-26" x="78.27" y="0">U</tspan><tspan class="cls-27" x="106.27" y="0">T</tspan></text><path class="cls-28" d="M233.72,299.93l40.22,23.85S261.88,308.36,233.72,299.93Z" transform="translate(119.34 132.66)"/><path class="cls-28" d="M229.86,319.1,271.92,331A83.26,83.26,0,0,0,229.86,319.1Z" transform="translate(119.34 132.66)"/><path class="cls-28" d="M266.05,303.66l-9.61,30.87S267.66,317.62,266.05,303.66Z" transform="translate(119.34 132.66)"/><path class="cls-28" d="M251.71,299.1,244.62,330S253.83,314.8,251.71,299.1Z" transform="translate(119.34 132.66)"/></g></svg>