<svg width="270" height="56" viewBox="0 0 270 56" fill="none" xmlns="http://www.w3.org/2000/svg">
<path d="M32.5454 27.5909L8.68176 13.9546L32.5454 1L56.4091 13.9546L32.5454 27.5909Z" fill="#FC6198" stroke="#FC6198"/>
<path d="M33.2273 55V28.2727L57.091 15.1105V39.8636L33.2273 55Z" fill="#1E1E1E" stroke="#1E1E1E"/>
<path d="M31.8637 28.2728L8 15.0953V39.8637L31.8637 55V28.2728Z" fill="white" stroke="white"/>
<path d="M97.784 40V35.52H86.616V17.6H81.688V40H97.784ZM116.676 31.904V31.84C116.676 26.976 114.052 22.528 108.324 22.528C103.332 22.528 99.844 26.56 99.844 31.456V31.52C99.844 36.768 103.652 40.384 108.804 40.384C111.908 40.384 114.212 39.168 115.812 37.184L113.028 34.72C111.684 35.968 110.5 36.48 108.868 36.48C106.692 36.48 105.156 35.328 104.676 33.12H116.612C116.644 32.672 116.676 32.384 116.676 31.904ZM111.94 30.08H104.612C104.996 27.872 106.308 26.432 108.324 26.432C110.372 26.432 111.652 27.904 111.94 30.08ZM125.517 20.96V16.64H120.397V20.96H125.517ZM125.389 40V22.848H120.525V40H125.389ZM140.293 27.616V22.528C137.413 22.4 135.813 23.936 134.821 26.304V22.848H129.957V40H134.821V33.664C134.821 29.568 136.805 27.616 140.037 27.616H140.293ZM158.864 31.904V31.84C158.864 26.976 156.24 22.528 150.512 22.528C145.52 22.528 142.032 26.56 142.032 31.456V31.52C142.032 36.768 145.84 40.384 150.992 40.384C154.096 40.384 156.4 39.168 158 37.184L155.216 34.72C153.872 35.968 152.688 36.48 151.056 36.48C148.88 36.48 147.344 35.328 146.864 33.12H158.8C158.832 32.672 158.864 32.384 158.864 31.904ZM154.128 30.08H146.8C147.184 27.872 148.496 26.432 150.512 26.432C152.56 26.432 153.84 27.904 154.128 30.08ZM188.69 40V35.52H177.522V17.6H172.594V40H188.69ZM197.111 20.96V16.64H191.991V20.96H197.111ZM196.983 40V22.848H192.119V40H196.983ZM211.183 39.296V35.392C210.479 35.776 209.679 36 208.783 36C207.695 36 207.215 35.456 207.215 34.336V27.008H211.247V22.848H207.215V18.464H202.351V22.848H200.303V27.008H202.351V35.136C202.351 39.104 204.367 40.288 207.343 40.288C208.975 40.288 210.159 39.904 211.183 39.296ZM239.44 22.848H234.608L231.792 33.28L228.528 22.784H224.336L221.104 33.248L218.352 22.848H213.424L218.704 40.128H223.056L226.416 29.6L229.712 40.128H234.096L239.44 22.848ZM247.611 20.96V16.64H242.491V20.96H247.611ZM247.483 40V22.848H242.619V40H247.483ZM267.763 40V28.896C267.763 24.96 265.619 22.528 261.939 22.528C259.475 22.528 258.035 23.84 256.915 25.28V22.848H252.051V40H256.915V30.432C256.915 28.128 258.099 26.944 259.955 26.944C261.811 26.944 262.899 28.128 262.899 30.432V40H267.763Z" fill="black"/>
<path d="M10.9827 40.8305L1.26306 35.2764L10.9827 30L20.7024 35.2764L10.9827 40.8305Z" fill="#00AEAE" stroke="#00AEAE"/>
<path d="M10.9974 51.7719V40.8859L20.7171 35.5249V45.6069L10.9974 51.7719Z" fill="#1E1E1E" stroke="#1E1E1E"/>
<path d="M10.7197 40.8921L1 35.5249V45.6131L10.7197 51.7781V40.8921Z" fill="white" stroke="white"/>
</svg>
