<svg xmlns="http://www.w3.org/2000/svg" xmlns:xlink="http://www.w3.org/1999/xlink" viewBox="0 0 517.26 385.63"><defs><style>.cls-1{fill:url(#Gradiente_sem_nome_65);}.cls-2{isolation:isolate;}.cls-3{fill:#444c5e;}.cls-4{fill:url(#Gradiente_sem_nome_33);}.cls-5{fill:url(#Gradiente_sem_nome_53);}.cls-6{fill:#f1e9d2;}.cls-7{fill:url(#Gradiente_sem_nome_114);}.cls-8{fill:url(#Gradiente_sem_nome_115);}.cls-9{fill:url(#Gradiente_sem_nome_108);}.cls-10{fill:url(#Gradiente_sem_nome_52);}.cls-11{fill:url(#Gradiente_sem_nome_46);}.cls-12{fill:url(#Gradiente_sem_nome_113);}.cls-13{fill:url(#Gradiente_sem_nome_46-2);}.cls-14{fill:url(#Gradiente_sem_nome_46-3);}.cls-15{fill:url(#Gradiente_sem_nome_112);}.cls-16{fill:#357ea8;}.cls-17{fill:url(#Gradiente_sem_nome_80);}.cls-18{fill:url(#Gradiente_sem_nome_77);}.cls-19{fill:url(#Gradiente_sem_nome_70);}.cls-20{fill:url(#Gradiente_sem_nome_71);}.cls-21{fill:url(#Gradiente_sem_nome_58);}.cls-22{clip-path:url(#clip-path);}.cls-23{fill:#75333f;}.cls-24{fill:url(#Gradiente_sem_nome_61);}.cls-25,.cls-33{fill:none;stroke:#d83058;stroke-miterlimit:10;}.cls-25{stroke-width:0.75px;}.cls-26{fill:#d83058;}.cls-27{fill:url(#Gradiente_sem_nome_70-2);}.cls-28{fill:url(#Gradiente_sem_nome_69);}.cls-29{fill:url(#Gradiente_sem_nome_90);}.cls-30{fill:url(#Gradiente_sem_nome_90-2);}.cls-31{fill:url(#Gradiente_sem_nome_74);}.cls-32{fill:url(#Gradiente_sem_nome_75);}.cls-34{fill:url(#Gradiente_sem_nome_105);}.cls-35{fill:#b5533c;}.cls-36{fill:url(#Gradiente_sem_nome_96);}.cls-37{fill:url(#Gradiente_sem_nome_88);}.cls-38{fill:url(#Gradiente_sem_nome_82);}.cls-39{fill:url(#Gradiente_sem_nome_85);}.cls-40{fill:url(#Gradiente_sem_nome_85-2);}.cls-41{fill:#3f0c0b;}.cls-42{fill:url(#Gradiente_sem_nome_86);}.cls-43{fill:url(#Gradiente_sem_nome_88-2);}.cls-44{fill:url(#Gradiente_sem_nome_82-2);}.cls-45{fill:url(#Gradiente_sem_nome_90-3);}.cls-46{fill:url(#Gradiente_sem_nome_90-4);}.cls-47{fill:url(#Gradiente_sem_nome_90-5);}.cls-48,.cls-50{mix-blend-mode:multiply;}.cls-48{fill:url(#Gradiente_sem_nome_90-6);}.cls-49{fill:url(#Gradiente_sem_nome_90-7);}.cls-50{fill:url(#Gradiente_sem_nome_90-8);}.cls-51{fill:url(#Gradiente_sem_nome_90-9);}.cls-52{fill:url(#Gradiente_sem_nome_111);}</style><linearGradient id="Gradiente_sem_nome_65" x1="353.64" y1="308.51" x2="353.64" y2="112.8" gradientUnits="userSpaceOnUse"><stop offset="0.06" stop-color="#b5533c"/><stop offset="0.27" stop-color="#af503c"/><stop offset="0.54" stop-color="#9f483d"/><stop offset="0.85" stop-color="#853b3e"/><stop offset="1" stop-color="#75333f"/></linearGradient><linearGradient id="Gradiente_sem_nome_33" x1="260.85" y1="402.38" x2="260.85" y2="-51.81" gradientUnits="userSpaceOnUse"><stop offset="0" stop-color="#fff"/><stop offset="0.49" stop-color="#f1e9d2"/><stop offset="0.53" stop-color="#dedece"/><stop offset="0.76" stop-color="#84abba"/><stop offset="0.92" stop-color="#4b8aad"/><stop offset="1" stop-color="#357ea8"/></linearGradient><linearGradient id="Gradiente_sem_nome_53" x1="288.52" y1="304.25" x2="288.52" y2="12.27" gradientUnits="userSpaceOnUse"><stop offset="0.09" stop-color="#f1e9d2"/><stop offset="0.2" stop-color="#d3d8cb"/><stop offset="0.43" stop-color="#87adba"/><stop offset="0.67" stop-color="#357ea8"/><stop offset="0.71" stop-color="#36749a"/><stop offset="0.77" stop-color="#385a76"/><stop offset="0.86" stop-color="#3c2f3c"/><stop offset="0.93" stop-color="#3f0c0b"/></linearGradient><linearGradient id="Gradiente_sem_nome_114" x1="199.7" y1="216.98" x2="458.21" y2="216.98" gradientUnits="userSpaceOnUse"><stop offset="0.19" stop-color="#f1e9d2"/><stop offset="0.43" stop-color="#c0d8ce"/><stop offset="0.77" stop-color="#74bec9"/><stop offset="0.86" stop-color="#72bbc7"/><stop offset="0.92" stop-color="#6ab2be"/><stop offset="0.97" stop-color="#5da3b1"/><stop offset="1" stop-color="#5195a5"/></linearGradient><linearGradient id="Gradiente_sem_nome_115" x1="305.36" y1="151.61" x2="484.31" y2="151.61" gradientUnits="userSpaceOnUse"><stop offset="0" stop-color="#f1e9d2"/><stop offset="0" stop-color="#f0e9d2"/><stop offset="0.07" stop-color="#cfddd0"/><stop offset="0.15" stop-color="#b3d4ce"/><stop offset="0.24" stop-color="#9ccccc"/><stop offset="0.34" stop-color="#8ac6cb"/><stop offset="0.46" stop-color="#7dc1ca"/><stop offset="0.63" stop-color="#76bfc9"/><stop offset="1" stop-color="#74bec9"/></linearGradient><linearGradient id="Gradiente_sem_nome_108" x1="145" y1="140.73" x2="334.52" y2="140.73" gradientUnits="userSpaceOnUse"><stop offset="0" stop-color="#f1e9d2"/><stop offset="0.41" stop-color="#c0d8ce"/><stop offset="1" stop-color="#74bec9"/></linearGradient><linearGradient id="Gradiente_sem_nome_52" x1="355.68" y1="341.92" x2="355.68" y2="228.95" gradientUnits="userSpaceOnUse"><stop offset="0" stop-color="#5195a5"/><stop offset="0.19" stop-color="#68b0bd"/><stop offset="0.32" stop-color="#74bec9"/><stop offset="0.52" stop-color="#a4cecc"/><stop offset="0.78" stop-color="#dbe2d0"/><stop offset="0.9" stop-color="#f1e9d2"/></linearGradient><linearGradient id="Gradiente_sem_nome_46" x1="295.54" y1="282.27" x2="345.51" y2="215.83" gradientUnits="userSpaceOnUse"><stop offset="0" stop-color="#5195a5"/><stop offset="0.59" stop-color="#68b0bd"/><stop offset="1" stop-color="#74bec9"/></linearGradient><linearGradient id="Gradiente_sem_nome_113" x1="294.36" y1="271.62" x2="356.33" y2="197.93" gradientUnits="userSpaceOnUse"><stop offset="0" stop-color="#5195a5"/><stop offset="0.32" stop-color="#5499a8"/><stop offset="0.62" stop-color="#5ea4b2"/><stop offset="0.91" stop-color="#6eb7c3"/><stop offset="1" stop-color="#74bec9"/></linearGradient><linearGradient id="Gradiente_sem_nome_46-2" x1="298.38" y1="355.12" x2="298.38" y2="286.89" xlink:href="#Gradiente_sem_nome_46"/><linearGradient id="Gradiente_sem_nome_46-3" x1="342.09" y1="367.72" x2="342.09" y2="263.18" xlink:href="#Gradiente_sem_nome_46"/><linearGradient id="Gradiente_sem_nome_112" x1="298.38" y1="366.94" x2="298.38" y2="269.85" gradientUnits="userSpaceOnUse"><stop offset="0.21" stop-color="#357ea8"/><stop offset="0.3" stop-color="#3f86a7"/><stop offset="0.48" stop-color="#4d91a5"/><stop offset="0.64" stop-color="#5195a5"/></linearGradient><linearGradient id="Gradiente_sem_nome_80" x1="408.31" y1="505.59" x2="398.23" y2="429.16" gradientTransform="translate(-153.58 -12.33) rotate(-24.12)" gradientUnits="userSpaceOnUse"><stop offset="0" stop-color="#75333f"/><stop offset="0.97" stop-color="#b5533c"/><stop offset="0.97" stop-color="#c45e35"/><stop offset="0.98" stop-color="#dc6e2b"/><stop offset="0.99" stop-color="#ea7925"/><stop offset="1" stop-color="#ef7c23"/></linearGradient><linearGradient id="Gradiente_sem_nome_77" x1="420.37" y1="508.37" x2="412.4" y2="439.44" gradientTransform="translate(-153.58 -12.33) rotate(-24.12)" gradientUnits="userSpaceOnUse"><stop offset="0" stop-color="#b5533c"/><stop offset="0.21" stop-color="#a0483d"/><stop offset="0.5" stop-color="#883d3e"/><stop offset="0.77" stop-color="#7a353f"/><stop offset="1" stop-color="#75333f"/></linearGradient><linearGradient id="Gradiente_sem_nome_70" x1="372.06" y1="317.12" x2="372.06" y2="273.7" gradientTransform="translate(-8.73 10.02) rotate(-1.53)" gradientUnits="userSpaceOnUse"><stop offset="0.18" stop-color="#ef7c23"/><stop offset="0.45" stop-color="#f18731"/><stop offset="0.95" stop-color="#f6a655"/><stop offset="1" stop-color="#f7a959"/></linearGradient><linearGradient id="Gradiente_sem_nome_71" x1="374.04" y1="244.08" x2="374.04" y2="319.73" gradientTransform="translate(-8.73 10.02) rotate(-1.53)" gradientUnits="userSpaceOnUse"><stop offset="0" stop-color="#ef7c23"/><stop offset="0.08" stop-color="#e87726"/><stop offset="0.44" stop-color="#cc6332"/><stop offset="0.76" stop-color="#bb5739"/><stop offset="1" stop-color="#b5533c"/></linearGradient><linearGradient id="Gradiente_sem_nome_58" x1="216.52" y1="84.58" x2="429.43" y2="84.58" gradientUnits="userSpaceOnUse"><stop offset="0" stop-color="#ef5193"/><stop offset="0.13" stop-color="#eb4c8a"/><stop offset="0.7" stop-color="#dd3866"/><stop offset="1" stop-color="#d83058"/></linearGradient><clipPath id="clip-path"><path id="_Compound_Clipping_Path_" data-name="&lt;Compound Clipping Path&gt;" class="cls-1" d="M443.06,245.62a769.82,769.82,0,0,1,10.55-108.84q5.19-30.61,12.81-60.73c.45-1.75-53.14-21.19-55.77-21-1-1.16,4.29,45.1-.64,52.52-3.83,5.76-14.16,5.85-22.36,2.64l-35-44c-1.2-1.51-3.31.62-2.12,2.12Q366.19,88,381.79,107.67c-15.6-5.75-78.72-21-104.31-19.64a1.5,1.5,0,0,0,.11,3,284.61,284.61,0,0,1,56.77,7.51,439.27,439.27,0,0,1-43.11,13.95,15.17,15.17,0,0,1-9.13-1.95c-4.31-2.27-8.49-4.81-12.73-7.2L243.1,88.46a1.5,1.5,0,0,0-1.52,2.59l27.15,15.36c7,4,15.17,11,23.76,9.25,9.8-2,19.25-5.72,29.11-7.66a220.5,220.5,0,0,1,32.09-3.87c28.58,9.76,43.63,22.05,46.23,26.55,11.54,20,13.4,44.8,15.35,67.31,2.16,24.82,2.3,50-1.83,74.6-4.1,24.4-12.43,48-26,68.77h-.27a1.5,1.5,0,0,0-.07,3,1.63,1.63,0,0,0,1.85,0,320.31,320.31,0,0,1,68.73,6.2,1.52,1.52,0,0,0,1.62-2.26C443.91,316.4,442.18,280.39,443.06,245.62Z"/></clipPath><linearGradient id="Gradiente_sem_nome_61" x1="151.16" y1="73.2" x2="516.43" y2="73.2" gradientUnits="userSpaceOnUse"><stop offset="0" stop-color="#f5847e"/><stop offset="0.02" stop-color="#f5837e"/><stop offset="0.66" stop-color="#f15f8d"/><stop offset="1" stop-color="#ef5193"/></linearGradient><linearGradient id="Gradiente_sem_nome_70-2" x1="413.81" y1="355.29" x2="413.81" y2="283.92" gradientTransform="matrix(1, 0, 0, 1, 0, 0)" xlink:href="#Gradiente_sem_nome_70"/><linearGradient id="Gradiente_sem_nome_69" x1="413.91" y1="258.61" x2="413.91" y2="398.9" gradientUnits="userSpaceOnUse"><stop offset="0" stop-color="#ef7c23"/><stop offset="0.31" stop-color="#e17229"/><stop offset="0.88" stop-color="#bd5938"/><stop offset="1" stop-color="#b5533c"/></linearGradient><linearGradient id="Gradiente_sem_nome_90" x1="405.84" y1="241.33" x2="424.42" y2="344.38" gradientUnits="userSpaceOnUse"><stop offset="0" stop-color="#f5847e"/><stop offset="0.36" stop-color="#f37584"/><stop offset="1" stop-color="#ef5193"/></linearGradient><linearGradient id="Gradiente_sem_nome_90-2" x1="309.54" y1="298.95" x2="417.75" y2="365.73" gradientTransform="translate(15.92 -18.75) rotate(2.52)" xlink:href="#Gradiente_sem_nome_90"/><linearGradient id="Gradiente_sem_nome_74" x1="321.29" y1="545.05" x2="310.21" y2="461.02" gradientTransform="matrix(-0.9, -0.43, -0.43, 0.9, 813.53, -2.21)" gradientUnits="userSpaceOnUse"><stop offset="0" stop-color="#ef7c23"/><stop offset="0.27" stop-color="#ef7a28"/><stop offset="0.59" stop-color="#f17536"/><stop offset="0.94" stop-color="#f36d4e"/><stop offset="1" stop-color="#f36b53"/></linearGradient><linearGradient id="Gradiente_sem_nome_75" x1="334.55" y1="548.1" x2="325.79" y2="472.32" gradientTransform="matrix(-0.9, -0.43, -0.43, 0.9, 813.53, -2.21)" gradientUnits="userSpaceOnUse"><stop offset="0" stop-color="#f36b53"/><stop offset="0.24" stop-color="#ee6951"/><stop offset="0.51" stop-color="#e0644c"/><stop offset="0.81" stop-color="#c85a43"/><stop offset="1" stop-color="#b5533c"/></linearGradient><linearGradient id="Gradiente_sem_nome_105" x1="274.3" y1="168.54" x2="294.82" y2="168.54" gradientUnits="userSpaceOnUse"><stop offset="0" stop-color="#b5533c"/><stop offset="0.14" stop-color="#be5938"/><stop offset="0.37" stop-color="#d56a2e"/><stop offset="0.56" stop-color="#ef7c23"/><stop offset="0.74" stop-color="#ef7e25"/><stop offset="0.83" stop-color="#f1852d"/><stop offset="0.91" stop-color="#f3903b"/><stop offset="0.97" stop-color="#f5a04e"/><stop offset="1" stop-color="#f7a959"/></linearGradient><linearGradient id="Gradiente_sem_nome_96" x1="269.85" y1="181.35" x2="290.01" y2="181.35" gradientUnits="userSpaceOnUse"><stop offset="0" stop-color="#b5533c"/><stop offset="0.27" stop-color="#c05b37"/><stop offset="0.74" stop-color="#dd6f2b"/><stop offset="1" stop-color="#ef7c23"/></linearGradient><linearGradient id="Gradiente_sem_nome_88" x1="275.17" y1="224.41" x2="234.56" y2="224.41" gradientTransform="translate(177.72 -118.42) rotate(39.38)" gradientUnits="userSpaceOnUse"><stop offset="0" stop-color="#f7a959"/><stop offset="0.06" stop-color="#f6a655"/><stop offset="0.67" stop-color="#f18731"/><stop offset="1" stop-color="#ef7c23"/></linearGradient><linearGradient id="Gradiente_sem_nome_82" x1="315.39" y1="201.78" x2="255.51" y2="201.78" gradientTransform="translate(2 -1.95) rotate(0.49)" gradientUnits="userSpaceOnUse"><stop offset="0" stop-color="#fed873"/><stop offset="0.64" stop-color="#f9b761"/><stop offset="1" stop-color="#f7a959"/></linearGradient><linearGradient id="Gradiente_sem_nome_85" x1="347.86" y1="273.87" x2="249.75" y2="273.87" gradientUnits="userSpaceOnUse"><stop offset="0" stop-color="#b5533c"/><stop offset="0.19" stop-color="#a74c3d"/><stop offset="0.72" stop-color="#833a3e"/><stop offset="1" stop-color="#75333f"/></linearGradient><linearGradient id="Gradiente_sem_nome_85-2" x1="291.25" y1="279.52" x2="252.74" y2="279.52" xlink:href="#Gradiente_sem_nome_85"/><linearGradient id="Gradiente_sem_nome_86" x1="315.86" y1="215.47" x2="230.43" y2="215.47" gradientUnits="userSpaceOnUse"><stop offset="0" stop-color="#fed873"/><stop offset="0.32" stop-color="#fcc86a"/><stop offset="1" stop-color="#f7a959"/></linearGradient><linearGradient id="Gradiente_sem_nome_88-2" x1="299.31" y1="233.44" x2="257.87" y2="233.44" gradientTransform="matrix(1, 0, 0, 1, 0, 0)" xlink:href="#Gradiente_sem_nome_88"/><linearGradient id="Gradiente_sem_nome_82-2" x1="294.24" y1="206.89" x2="252.96" y2="206.89" gradientTransform="matrix(1, 0, 0, 1, 0, 0)" xlink:href="#Gradiente_sem_nome_82"/><linearGradient id="Gradiente_sem_nome_90-3" x1="259.12" y1="291.61" x2="259.12" y2="197.28" xlink:href="#Gradiente_sem_nome_90"/><linearGradient id="Gradiente_sem_nome_90-4" x1="259.41" y1="189.73" x2="259.41" y2="257.89" xlink:href="#Gradiente_sem_nome_90"/><linearGradient id="Gradiente_sem_nome_90-5" x1="267.71" y1="238.91" x2="267.71" y2="313.28" xlink:href="#Gradiente_sem_nome_90"/><linearGradient id="Gradiente_sem_nome_90-6" x1="259.89" y1="240.27" x2="259.89" y2="203.14" gradientTransform="matrix(1, -0.1, -0.02, 1.11, 4.41, 2.2)" xlink:href="#Gradiente_sem_nome_90"/><linearGradient id="Gradiente_sem_nome_90-7" x1="258.78" y1="242.93" x2="258.78" y2="201.7" xlink:href="#Gradiente_sem_nome_90"/><linearGradient id="Gradiente_sem_nome_90-8" x1="244.15" y1="238.73" x2="244.15" y2="201.61" gradientTransform="matrix(1, 0, -0.13, 1.01, 25.91, -2.06)" xlink:href="#Gradiente_sem_nome_90"/><linearGradient id="Gradiente_sem_nome_90-9" x1="243.83" y1="238.45" x2="243.83" y2="201.55" gradientTransform="matrix(1, 0, -0.13, 1.01, 25.91, -2.06)" xlink:href="#Gradiente_sem_nome_90"/><linearGradient id="Gradiente_sem_nome_111" x1="224.74" y1="177.21" x2="296.73" y2="177.21" gradientUnits="userSpaceOnUse"><stop offset="0" stop-color="#3f0c0b"/><stop offset="0.51" stop-color="#410d0d"/><stop offset="0.69" stop-color="#481213"/><stop offset="0.82" stop-color="#531b1f"/><stop offset="0.93" stop-color="#64272f"/><stop offset="1" stop-color="#75333f"/></linearGradient></defs><title>Asset 1</title><g class="cls-2"><g id="Layer_2" data-name="Layer 2"><g id="OBJECTS"><rect class="cls-3" width="483.03" height="385.63"/><path class="cls-4" d="M439,71.52H132.47a35.23,35.23,0,0,0-3,26.66,36.49,36.49,0,0,0,22.67,23.59c14.42,5.06,30.28.91,45.58,0s33.62,3.54,38.78,17.58c3.95,10.77-1.59,22.37-5.83,33s-6.68,24.25,1.64,32.34c12.87,12.51,36.77-.69,52.43,8.31,6.66,3.82,10.59,11.4,10.62,18.91s-3.56,14.81-9,20.13c-12.39,12.1-31.78,13.4-49.34,13.74s-36.82,1.06-49.86,12.5c-11.66,10.23-16.05,27.36-29.44,35.35-10.05,6-22.65,5.32-34.3,7a80.33,80.33,0,0,0-40.71,18.87H439Z"/><path class="cls-5" d="M439,71.52H147.44a40.28,40.28,0,0,0,3.57,32,40.18,40.18,0,0,0,37.84,19c14.25-1.49,26.9-10.65,41.19-11.73a37.26,37.26,0,0,1,30.1,62.52c-4.45,4.79-10.65,9.64-9.81,16.12.59,4.55,4.75,7.91,9.13,9.28s9.06,1.22,13.63,1.64c21.74,2,41.92,19.36,44.57,41s-14.94,44.5-36.76,45.1c-21.6.59-41.8-18-62.71-12.54C201.93,278.18,193,295,183,308.44c-9.17,12.34-23.41,29.8-45,31.08H439Z"/><path class="cls-6" d="M357.49,179a32,32,0,0,1-26.86-49.55,32.05,32.05,0,1,0,30.73,49.31A33,33,0,0,1,357.49,179Z"/><path class="cls-7" d="M448.45,226.27c-4.74-2.82-10-2.91-15.35-2.72-5.68.21-11.19.33-16.53-1.06a8.11,8.11,0,0,1-5.12-4.31,5.11,5.11,0,0,0-1.92-2c-2-1.21-4.15-.79-6.16,0a.34.34,0,0,1-.45-.36,11.83,11.83,0,0,0-10.65-13.46c-8.52-.71-12.87,6.75-14.54,14.1a1.08,1.08,0,0,1-1.54.7,3.23,3.23,0,0,0-4.5,1.42l0,.05a8,8,0,0,1-7.07,4.24c-2.86,0-5.71-.12-8.52-.13a62.5,62.5,0,0,0-17.52,2.44c-.68.19-.29,1.07.27,1.14a93.47,93.47,0,0,0,11.73.57c19.85,0,26,3.22,45.62,4.65,2.5.19,4,0,6-1.39,1.05-.73,1.21-.77,2.58-.37.69.2,1.32.58,2,.76a4.91,4.91,0,0,0,2.52.16,2.5,2.5,0,0,0,1.91-3.53c12.36.27,24.68.37,37.05.38C449,227.57,449,226.62,448.45,226.27Z"/><path class="cls-8" d="M316.19,164.6c22.45-1.33,45.16-2.8,67.4,1.38a2.78,2.78,0,0,0-1.15,1.7c-.77,3.38,3.25,4.94,5.88,4.91,6.77-.06,13.75-3.67,20.23-5.33,8.44-2.16,16.2-1.6,24.56.53,6.42,1.63,12.69,3.23,19.35,3.25a90.7,90.7,0,0,0,20.73-2.81c12.11-2.78,24.32-7.69,36.82-7.93,1.95.06,3.9.14,5.86.19,1.13,0,2.09-2,.7-2.09s-40-1.16-56-2c-4.23,0-5.36-7.95-12.31-.68a21.63,21.63,0,0,1,.22-3.6,34.3,34.3,0,0,0,.24-3.8,20.28,20.28,0,0,0-2.34-9.12c-4.78-8.9-17.69-12.13-24.37-3.43a12.21,12.21,0,0,0-2.47,5.81c-.63,4.81,2.54,9.24-3.31,12.45-1.85,1-5.6,2.31-5,4.73a40.17,40.17,0,0,0-14.42.14c-2.87.57-5.7,1.73-8.66,1.51s-5-1.68-7.09-3.64c-4.21-3.93-8.51-9.28-14.81-6.14-4.69,2.34-7.25,7.52-13,7.88-4.53.29-9-2-13.5-.66a19.18,19.18,0,0,0-5.12,2.83c-3.32,2.15-6.15,2.14-9.88,1.33-3.36-.73-6.37-1-8.94,1.56C315.48,163.93,315.56,164.64,316.19,164.6Z"/><path class="cls-9" d="M339.23,140.54c-13.24.27-26.5.59-39.74.56-2.89,0-2.52-2-3.95-3.6a2.84,2.84,0,0,0-2.32-.91,2.22,2.22,0,0,0-2.24,1.78c-3.28-4.66-7.5-9.22-13.56-9.31a8.14,8.14,0,0,0-8.22,10.42c.69,2.79,1.17,7.34-3.36,5.34A5.8,5.8,0,0,0,263,144a3.78,3.78,0,0,0-2.32,1.32c-2,2-3.4,2.91-6.29,3.21-9.67,1-19.47,1.21-29.17,1.9-1.23.09-.34,1.91.68,1.87,6-.27,12.08-.45,18.13-.62,8.71.21,17.42.34,26.14.46,5.65.08,11.33.31,17,.19,4.95-.11,13.89-1.11,13.79-4.25-.08-2.2-8.15-2.07-8.49-2.94-.89-2.22,9-.57,22-.57,8.55,0,17.09-.22,25.2-3.18C340.22,141.22,339.6,140.53,339.23,140.54Z"/><path class="cls-10" d="M236.82,265.78c26.27-14.13,66.63-8.73,95,1.76,13,4.81,25.92,10.67,40,11.58,36.47,2.34,66.26-28.62,102.76-30.53V356.77H236.82Z"/><path class="cls-11" d="M336.37,236a56.49,56.49,0,0,1-67.9,41.09,11.84,11.84,0,0,0,1,3.09,16.25,16.25,0,0,0,2.19,3.35,25.58,25.58,0,0,0,8.23,6.39,35.72,35.72,0,0,0,13.28,3.66,42.81,42.81,0,0,0,16.77-2c-.15-3.19-.46-6.43-.87-9.57,1,3,1.89,5.91,2.77,8.9.88-.35,1.77-.68,2.64-1.09q-2.36-6.74-5-13.35L316,289.07a45.58,45.58,0,0,0,7.59-4.77q-4.66-6.06-9.18-12.23a90.57,90.57,0,0,0,13.42,8.1c.67-.71,1.31-1.45,1.91-2.22-2.58-1.08-5.11-2.3-7.55-3.6a73.21,73.21,0,0,0,8.56,2.33,46.49,46.49,0,0,0,6.88-12.91L334.33,262c1.21.29,2.41.53,3.62.76l.52-1.8a91.1,91.1,0,0,1-9.7-2.23c1.72,0,3.42,0,5.15-.18s3.47-.34,5.24-.61a37.62,37.62,0,0,0,.39-12A29.67,29.67,0,0,0,336.37,236Z"/><path class="cls-12" d="M333.89,222.39a36.79,36.79,0,0,0-3.58,3.45c-1.07,1.21-2,2.43-2.94,3.65a46.14,46.14,0,0,0-3.69,6.52c-.81.83-1.61,1.68-2.39,2.53.23-.47.45-.94.64-1.43a20.1,20.1,0,0,0,1-3.9,47.12,47.12,0,0,0,.65-8.49c0-2.83-.06-5.63-.11-8.06a34,34,0,0,1,.23-5.71l-.78.93c-.47.6-1.18,1.43-1.92,2.53a41.14,41.14,0,0,0-4.55,8.46,20.59,20.59,0,0,0-1.54,9.93,10.23,10.23,0,0,0,4.8,7.44q-3.35,3.75-6.38,7.75c.17-.43.33-.87.47-1.31a16.05,16.05,0,0,0,.68-4.6,32,32,0,0,0-1.35-9.34,59.09,59.09,0,0,0-2.69-7.56c-.85-1.94-1.5-3.13-1.5-3.13s-.76,1.39-1.68,3.57a38.81,38.81,0,0,0-2.34,8.46,21,21,0,0,0,.62,9.68,12.31,12.31,0,0,0,5.75,7c-1.37,1.9-2.7,3.83-4,5.79a11.85,11.85,0,0,0,.37-3.61,17.86,17.86,0,0,0-1.95-7c-2.37-4.54-6.83-8.58-13.69-8.53a16.15,16.15,0,0,0,.2,1.88,22.5,22.5,0,0,0,1.18,4.35c1.24,3.26,3.61,6.7,7.62,8.06s5.11,3.26,5.44,4.75a4.36,4.36,0,0,1,.11,1.26,129.81,129.81,0,0,0-9.93,19l.92.39a128.82,128.82,0,0,1,10.59-20,4.3,4.3,0,0,1,1.1-.37c1.53-.28,3.72.23,6.52,3.16s6.92,4,10.08,4.4a34.52,34.52,0,0,0,4,.25c1,0,1.62-.05,1.62-.05a18.87,18.87,0,0,0-12.4-10.28,13.77,13.77,0,0,0-7.09.17,10.8,10.8,0,0,0-3.1,1.58c.63-.95,1.27-1.9,1.92-2.83a6.91,6.91,0,0,1,.93-.26,28.52,28.52,0,0,1,9.66.25,20,20,0,0,0,7.38-.27,33.33,33.33,0,0,0,6.41-2,49.3,49.3,0,0,0,4.59-2.18c1.13-.59,1.78-1,1.78-1a21,21,0,0,0-7.88-3.31,24.2,24.2,0,0,0-2.87-.35c.6-.21,1.19-.43,1.76-.67a37,37,0,0,0,4.52-2.17,71.85,71.85,0,0,0,7.13-4.51c.9-.64,1.6-1.22,2.11-1.6l.78-.6c-3.33-.09-8.5-.53-14.16.51a28.21,28.21,0,0,0-11.37,4.74c.95-1,1.92-2.07,2.9-3.08a81.07,81.07,0,0,0,11.08-6.92c1.95-1.34,3.71-2.84,5.48-4.19.87-.69,1.71-1.39,2.51-2.09s1.62-1.32,2.38-2l2.18-1.92q1.06-.9,2-1.74c1.25-1.13,2.34-2.17,3.28-3,1.85-1.68,2.91-2.78,2.91-2.78C346.41,214.06,339.12,218,333.89,222.39Zm-12.32,22.75a24.09,24.09,0,0,0-8.55,4.94q2.25-3,4.67-5.94A15.41,15.41,0,0,0,321.57,245.14Z"/><path class="cls-13" d="M121.35,268.51c106.09-23.54,203.5,35.34,259.91,23,78.18-17.11,94.15,65.27,94.15,65.27H121.35Z"/><path class="cls-14" d="M208.77,356.77s95.39-74,266.64-74v74Z"/><path class="cls-15" d="M121.35,291.32S305.58,266,475.41,356.77H121.35Z"/><ellipse class="cls-16" cx="241.73" cy="324.2" rx="39.76" ry="7.95"/><path class="cls-6" d="M414.57,153.43a.33.33,0,1,1-.32-.32A.33.33,0,0,1,414.57,153.43Z"/><circle class="cls-6" cx="422.96" cy="183.46" r="1.8"/><path class="cls-6" d="M403.83,185.66a1.9,1.9,0,1,1-1.9-1.9A1.89,1.89,0,0,1,403.83,185.66Z"/><circle class="cls-6" cx="409.01" cy="176.16" r="1.5"/><path class="cls-6" d="M398.37,179.56a1.82,1.82,0,1,1-1.82-1.82A1.82,1.82,0,0,1,398.37,179.56Z"/><circle class="cls-6" cx="362.82" cy="200.08" r="1.75"/><circle class="cls-6" cx="389.8" cy="154.74" r="1.04"/><circle class="cls-6" cx="348.32" cy="140.85" r="1.85"/><path class="cls-6" d="M333.44,120.19a1.69,1.69,0,1,1-1.69-1.69A1.69,1.69,0,0,1,333.44,120.19Z"/><circle class="cls-6" cx="278.31" cy="141.24" r="0.84"/><path class="cls-6" d="M289.75,167a.3.3,0,0,1-.3.29.29.29,0,0,1,0-.58A.3.3,0,0,1,289.75,167Z"/><path class="cls-6" d="M313.47,177.45a.61.61,0,0,1-.61.61.62.62,0,0,1-.61-.61.61.61,0,0,1,.61-.61A.61.61,0,0,1,313.47,177.45Z"/><circle class="cls-6" cx="334.24" cy="220.38" r="0.41"/><path class="cls-6" d="M351.43,172.11a.9.9,0,1,1-.9-.9A.9.9,0,0,1,351.43,172.11Z"/><path class="cls-6" d="M350.45,203.48a1,1,0,1,1-1-1A1,1,0,0,1,350.45,203.48Z"/><circle class="cls-6" cx="353.1" cy="206.85" r="1.76"/><path class="cls-6" d="M366.53,239.38a1.79,1.79,0,1,1-1.79-1.79A1.79,1.79,0,0,1,366.53,239.38Z"/><circle class="cls-6" cx="403.9" cy="141.07" r="1.58"/><path class="cls-6" d="M380.5,144a.83.83,0,1,1-.82-.83A.82.82,0,0,1,380.5,144Z"/><path class="cls-6" d="M365.54,113.59a.88.88,0,1,1-1.76,0,.88.88,0,1,1,1.76,0Z"/><path class="cls-6" d="M387.18,153.54a1,1,0,0,1-2.08,0,1,1,0,0,1,2.08,0Z"/><circle class="cls-6" cx="367.55" cy="143.46" r="1.93"/><path class="cls-6" d="M359,114.41a.72.72,0,1,1-.71-.71A.71.71,0,0,1,359,114.41Z"/><path class="cls-6" d="M364.27,131.93a.68.68,0,0,1-1.36,0,.68.68,0,1,1,1.36,0Z"/><path class="cls-17" d="M434.4,262.55h-.09a7.12,7.12,0,0,0,4.49-8c-.73-6.09-7.39-9.15-12.95-8.21a13.64,13.64,0,0,0-3.92,1.37c-.86.44-4.05,3-5.14,2.51-1.81-.86,5.48-4.59,6-5,5.22-3.41,5.13-10-.7-12.78-6.57-3.16-12.95,1-14.13,7.51-.37,2-.14,3.79-1.09,3.65-1.69-.26-.19-3.62.3-5.35,1-3.69-.53-6.75-3.43-9C398.3,225,390,227.07,388,233.94c-1.33,4.4.64,9,4.05,11.91a5.3,5.3,0,0,0,0,5.51c1.27,2.35,3.85,3.5,6.37,3.94.74.13,4.57.32,2.49,1-1.34.44-3.79-.52-5.24-.46-6.14.27-8.59,6.46-4.4,11a11.09,11.09,0,0,0,8.11,3.12,33.77,33.77,0,0,0,3.89-.29c.24,0,2.49-.35,2.56-.05-.07-.28-6.63,1.44-9.53,5a8.58,8.58,0,0,0-1,8.27c2,5.32,9.28,7.6,14.11,4.69,5.47-3.31,4.5-12.44,6.6-14.83,1-1.17,2,.36,3,1.36,4.57,4.56,9,9.45,16.06,9.45,5.12,0,10.93-3.29,11.54-8.81C447.29,267.91,440.48,263.19,434.4,262.55Zm-7,.48c-.78.15-1.8.58-2.58.79-2.43.63-4.58-.92-1.66-1.75C424.58,261.66,426.09,262.74,427.4,263Z"/><path class="cls-18" d="M438.8,254.56c-.73-6.09-7.39-9.15-12.95-8.21a13.64,13.64,0,0,0-3.92,1.37c-.86.44-4.05,3-5.14,2.51-1.81-.86,5.48-4.59,6-5,5.22-3.41,5.13-10-.7-12.78-6.57-3.16-12.95,1-14.13,7.51-.37,2-.14,3.79-1.09,3.65-1.69-.26-.19-3.62.3-5.35,1-3.69-.53-6.75-3.43-9a10.26,10.26,0,0,0-12.78,0c7.88,9.55,17.93,26.82,25.78,43.06.72.06,1.42,1,2.14,1.77,4.57,4.56,9,9.45,16.06,9.45,5.12,0,10.93-3.29,11.54-8.81.76-6.85-6-11.57-12.13-12.21h-.09A7.12,7.12,0,0,0,438.8,254.56Zm-14,9.26c-2.43.63-4.58-.92-1.66-1.75,1.42-.41,2.93.67,4.24,1C426.62,263.18,425.6,263.61,424.82,263.82Z"/><path class="cls-19" d="M422,271c-6.91-6.32-17.86-4.7-25.33-.35a35,35,0,0,0-15.68,20c-2.61-6.88-7.41-14-15.62-11.68a8,8,0,0,0-5.27,10.21c-12.71-2.33-26.85-.62-36.33,8.86-8.72,8.72-12,22.8-4.85,33.47,8.13,12.14,23.52,14.81,37.1,14.74a195,195,0,0,0,52.74-7.9,1.66,1.66,0,0,0,2.63-.15,99.2,99.2,0,0,0,14.39-36.05C427.46,292.79,430,278.36,422,271Z"/><path class="cls-20" d="M423.56,272.74a41,41,0,0,0-6.07-3.77c-5.85-2.78-30.07,13.69-36.25,28.17-2.53-4.63-6.86-8.23-12.57-7.6a9.15,9.15,0,0,0-8.27,8.63c-10-3.52-20.92-.38-28.59,7.09-7.41,7.22-10.9,16.89-12.5,26.87,8.23,11.65,23.32,14.25,36.68,14.18a195,195,0,0,0,52.74-7.9,1.66,1.66,0,0,0,2.63-.15,99.2,99.2,0,0,0,14.39-36.05C427.34,293.48,429.63,280.45,423.56,272.74Z"/><path class="cls-21" d="M480.81,51.61c-5.71-5.71-16-6.43-23.48-7.65a253.12,253.12,0,0,0-31.7-3.1c-44.81-1.66-89.05,7-133.27,12.9-25,3.34-50.22,5.73-75.51,5A1.46,1.46,0,0,0,215.59,61l-.05.07c-11,24.16-.56,53.19,24.09,63.71,22.33,9.53,48.14.08,59.83-20.7,4.68,11.8,19,16.68,31,12.6,14.54-5,22.49-18.44,27.45-32.18,5.57,9.89,20.48,9.49,25.31-.94a39.46,39.46,0,0,0,64.21,8.85,57.15,57.15,0,0,0,29.88,12.47,1.6,1.6,0,0,0,2.83-.31,94.15,94.15,0,0,0,5.67-29.14C486,68.07,486.51,57.32,480.81,51.61Z"/><path id="_Compound_Clipping_Path_2" data-name="&lt;Compound Clipping Path&gt;" class="cls-1" d="M443.06,245.62a769.82,769.82,0,0,1,10.55-108.84q5.19-30.61,12.81-60.73c.45-1.75-53.14-21.19-55.77-21-1-1.16,4.29,45.1-.64,52.52-3.83,5.76-14.16,5.85-22.36,2.64l-35-44c-1.2-1.51-3.31.62-2.12,2.12Q366.19,88,381.79,107.67c-15.6-5.75-78.72-21-104.31-19.64a1.5,1.5,0,0,0,.11,3,284.61,284.61,0,0,1,56.77,7.51,439.27,439.27,0,0,1-43.11,13.95,15.17,15.17,0,0,1-9.13-1.95c-4.31-2.27-8.49-4.81-12.73-7.2L243.1,88.46a1.5,1.5,0,0,0-1.52,2.59l27.15,15.36c7,4,15.17,11,23.76,9.25,9.8-2,19.25-5.72,29.11-7.66a220.5,220.5,0,0,1,32.09-3.87c28.58,9.76,43.63,22.05,46.23,26.55,11.54,20,13.4,44.8,15.35,67.31,2.16,24.82,2.3,50-1.83,74.6-4.1,24.4-12.43,48-26,68.77h-.27a1.5,1.5,0,0,0-.07,3,1.63,1.63,0,0,0,1.85,0,320.31,320.31,0,0,1,68.73,6.2,1.52,1.52,0,0,0,1.62-2.26C443.91,316.4,442.18,280.39,443.06,245.62Z"/><g class="cls-22"><path class="cls-23" d="M503.47,203.47A690,690,0,0,0,498.2,128c-1.59-12.31-3.56-24.57-6-36.74-2.29-11.39-4.18-23.79-8.65-34.58-3.91-9.44-11.74-13-21.35-14.68-11.71-2.06-23.56-3.47-35.39-4.59a513.52,513.52,0,0,0-149.6,8q-18.37,3.72-36.43,8.79c-8.42,2.37-18,4.78-22.68,13-5.76,10.14-3.13,24.57-2.84,35.63q.27,10.49.54,20.95c.13,4.65,0,9.74,2.2,14,4.74,9.29,16.66,8.48,25.33,6.61a66.52,66.52,0,0,0,21.84-9.1A1.28,1.28,0,0,0,267,135c.72-.82,1.41-1.66,2.09-2.51,1.67-1.24,3.3-2.56,4.87-3.95a1.4,1.4,0,0,0-.41-2.34,65.86,65.86,0,0,0,8.6-21.24c11.16,4.07,23,3.92,34.58,1.57a142.12,142.12,0,0,0,18.72-5.35c2.74-1,5.46-2.26,8.26-3.06,4.54-1.3,9.8-.75,14.47-.63a219.12,219.12,0,0,1,42.76,5.34q5.54,1.26,11,2.79c2.48.7,6.9,1.21,9.06,2.76,2.58,1.86,3,7.4,3.8,10.33q1.4,5.42,2.56,10.89A248.52,248.52,0,0,1,430.24,216c-3.83,26.59-12.34,53.08-29.8,74-16.11,19.27-42,41-32.67,69.38a1.58,1.58,0,0,0,1.45,1.1A647.26,647.26,0,0,0,495.71,359a1.56,1.56,0,0,0,1.5-1.5C500.85,306.27,504.42,254.9,503.47,203.47Z"/></g><path class="cls-24" d="M487.43,55.62c.05-.63.08-1.26.1-1.9a1.54,1.54,0,0,0-2.81-.87c-8.48-12.65-25.59-17.52-39.43-21.73a329.16,329.16,0,0,0-65.18-12.56c-44.76-4.21-89.88-.25-134.06,7.34-25.51,4.39-50.79,10-76,15.94a1.54,1.54,0,0,0-.19,2.91c-11.48,8.11-14.49,26.45-4.32,37,8.85,9.14,24.06,8.68,33.44.93-4.53,21.59,10,43.68,32.83,46.61,23.51,3,43.29-16.13,43.26-39,11.57,8.64,26.87,13.89,41,9,9.55-3.31,17.51-11,20.37-20.59a23.1,23.1,0,0,0,20.32,12.51c10.9.06,19.81-7.11,25.64-15.85,1.05,4.93,5,9.24,10.41,9.46s9.89-4,11.24-8.94c3.45,10.14,14.5,12.82,24.33,12-1.17,2.88,1.18,19.13,6.13,24.36,11,11.59,28.3,16.5,43.48,11.11,14.49-5.14,25.46-18.59,26.26-34.12A37.82,37.82,0,0,0,487.43,55.62Z"/><path class="cls-25" d="M385.56,307.53a236.43,236.43,0,0,0,3-46.41"/><path class="cls-26" d="M388.65,272.79a44.09,44.09,0,0,1-3.07-13c-.36-4.85.09-10.46,1.51-17.82,0,0,.47,1,1.1,2.76a48.13,48.13,0,0,1,2,7.25C391.31,258,391.59,265.87,388.65,272.79Z"/><path class="cls-26" d="M388.58,276c-.32-3.76-3.38-7.08-6.69-9.64s-6.91-4.41-8.31-5.56a37.15,37.15,0,0,0,3.39,8.13C379.31,272.88,382.9,276.85,388.58,276Z"/><path class="cls-26" d="M388.46,279.32c0-5,2-9.33,4.32-13.15s5-7,6.54-9.36a26.34,26.34,0,0,1,.08,3.13,35,35,0,0,1-.83,7.12C397.38,272.4,394.42,278,388.46,279.32Z"/><path class="cls-26" d="M388.08,285.84c.36-4.95-3.63-8.6-7.64-10.84a35.08,35.08,0,0,0-8.11-3.23,21.72,21.72,0,0,0,.94,2.24,32.32,32.32,0,0,0,2.83,4.93C378.64,282.5,382.45,286.18,388.08,285.84Z"/><path class="cls-26" d="M387.91,288.22a23.35,23.35,0,0,1,5.41-12.33c3-3.7,7-6.72,11.37-7.79a28.14,28.14,0,0,1-1.84,6.15c-1.4,3.31-3.8,7-7.46,8.83a29.83,29.83,0,0,0-6.48,3.89C388,287.81,387.91,288.22,387.91,288.22Z"/><path class="cls-26" d="M387.48,293c.31-3-2-6.23-5.5-8a14.64,14.64,0,0,0-12.67-.19,20.77,20.77,0,0,0,3.48,2.81,12.89,12.89,0,0,0,8.35,2.32c3.15-.39,4.75.36,5.55,1.23A3,3,0,0,1,387.48,293Z"/><path class="cls-26" d="M387.57,292.05c.3-3,3.05-5.79,6.76-7.2a13.19,13.19,0,0,1,12.57,1.61,17.36,17.36,0,0,1-3.89,2.65,11.6,11.6,0,0,1-8.63,1c-3-1-4.74-.47-5.68.24A3.15,3.15,0,0,0,387.57,292.05Z"/><path class="cls-27" d="M466.51,290.26c-9.58-7.92-22.52-10.8-34.29-6.36a35.31,35.31,0,0,0-21.66,23.29c-7.19-10.67-18.47-22.54-32.33-16.67-5.88,2.48-9.3,8.37-9.77,14.6-.4,5.36,1.39,10.34,4.16,14.76-7.66-2.58-16.72-.65-21.74,6.3-6.71,9.32-3.13,23.14,7,28.29,5.67,2.88,12.29,3,18.5,2.62,9-.58,18-1.81,27-2.12a265.15,265.15,0,0,1,56.18,4.12,1.91,1.91,0,0,0,2.94-2,15.17,15.17,0,0,0,.4-3.73C483.2,338.22,487.13,307.28,466.51,290.26Z"/><path class="cls-28" d="M466.51,290.26a38,38,0,0,0-5-3.46C443.23,276,422.16,303,420.58,324c-6.3-7.35-15.92-12.51-25.95-8.44-7.43,3-11,11.28-8,17.91a46.42,46.42,0,0,0-21.33-1.37c-6,1-13,3.33-17.68,7.59a19.49,19.49,0,0,0,10.2,14.77c5.67,2.88,12.29,3,18.5,2.62,9-.58,18-1.81,27-2.12a265.15,265.15,0,0,1,56.18,4.12,1.91,1.91,0,0,0,2.94-2,15.17,15.17,0,0,0,.4-3.73C483.2,338.22,487.13,307.28,466.51,290.26Z"/><path class="cls-23" d="M431.25,353a121.5,121.5,0,0,1-55.81-100.7,21.5,21.5,0,0,0-7.4,6.13,28.17,28.17,0,0,0-1.82,2.47c-.55.88-1.1,1.82-1.63,2.83s-1,2.07-1.55,3.2a29.11,29.11,0,0,0-1.36,3.56,65.25,65.25,0,0,0-2,8.12,76.59,76.59,0,0,0-.68,9.28c.05,1.61.14,3.27.28,5a44,44,0,0,0,.64,5.17,64.35,64.35,0,0,0,2.77,10.65q6.38-.61,12.63-1.55c-3.91,1.34-7.83,2.63-11.77,3.9.42,1.08.81,2.19,1.32,3.26q9-3.21,17.82-6.65l-16.94,8.45q1.2,2.42,2.55,4.83c.89,1.61,2,3.12,3.05,4.67q8.44-5.69,17-11.25a191.32,191.32,0,0,0-12.24,16.83q1.26,1.33,2.55,2.61c1.9-3.2,3.85-6.33,5.87-9.36q-2.34,5.21-4.43,10.78c2.35,2.12,4.82,4.07,7.26,5.93s5.18,3.38,7.76,4.87l3.15-3.87c-.68,1.51-1.31,3-1.92,4.5l2.17,1c1.66-4.11,3.4-8.08,5.38-12.06-.2,1.11-.42,2.26-.59,3.38l-.45,3.37q-.42,3.39-.71,6.92C412.35,353.43,422.69,354.47,431.25,353Z"/><path class="cls-29" d="M422.45,227.47C407,245.14,397.83,269.76,397.7,293.2c-.14,26.58,10.15,50.22,32.88,59.82,1.31-5.35.44-13.63-.49-22.87-.49-4.44-1-9.3-1.61-14.5-.56-5-1.12-10.13-1.77-15.41-4.2,0-8.31-.14-12.53-.47q6.18-.52,12.33-1.25c-.08-.81-.22-1.61-.3-2.42q-9.42.81-18.91,1.21l18.76-2.59c-.33-2.46-.57-5-.94-7.56q-10.15.52-20.3,1.33A115.64,115.64,0,0,1,424.23,282c-.17-.87-.29-1.75-.41-2.63-3.5.75-6.94,1.68-10.37,2.78,1.68-.83,3.32-1.61,5-2.32s3.41-1.36,5.1-1.95c-.67-4.64-1.21-9.49-1.55-14.48l-4.85-1c1.58-.1,3.19-.15,4.79-.16l-.12-2a117.4,117.4,0,0,0-13.09.52c2.13-.86,4.31-1.61,6.47-2.27s4.33-1.22,6.48-1.69c-.17-4.82-.16-9.74,0-14.67S422.17,232.33,422.45,227.47Z"/><path class="cls-30" d="M423.78,353.39S395,310.55,319.93,302C319.93,302,329.14,362.8,423.78,353.39Z"/><path class="cls-31" d="M267.9,345.32c.55,6.08,6.87,9.83,12.5,9.93,7.72.15,12.74-5.13,17.86-10.05,1.11-1.07,2.19-2.74,3.3-1.43,2.26,2.67,1,12.69,6.94,16.44,5.25,3.3,13.28,1,15.61-4.85a9.45,9.45,0,0,0-1-9.12c-3.11-4-10.29-6.05-10.37-5.74.09-.33,2.55.08,2.81.11a36,36,0,0,0,4.28.4c3.25,0,6.65-.85,9-3.26,4.71-4.88,2.15-11.74-4.6-12.16-1.59-.1-4.3.9-5.77.4-2.27-.79,2-.91,2.76-1,2.77-.43,5.64-1.65,7.08-4.2a5.83,5.83,0,0,0,.16-6.06c3.8-3.13,6.06-8.13,4.69-13-2.13-7.59-11.18-10-17.31-5.44-3.23,2.42-5,5.74-3.95,9.82.49,1.91,2.07,5.64.2,5.89-1,.14-.74-1.79-1.11-4-1.16-7.22-8.09-11.89-15.37-8.56-6.47,2.95-6.71,10.18-1,14,.61.42,8.55,4.68,6.54,5.58-1.21.55-4.66-2.36-5.6-2.86a14.58,14.58,0,0,0-4.27-1.59c-6.09-1.15-13.49,2.07-14.41,8.75-.63,4.52,1.54,7.47,4.76,8.87h-.1C274.79,332.73,267.2,337.78,267.9,345.32Zm26-13.46c3.2,1,.8,2.64-1.86,1.89-.85-.24-2-.74-2.82-.91C290.63,332.54,292.31,331.39,293.86,331.86Z"/><path class="cls-32" d="M281.59,332.15h-.1c-6.7.58-14.29,5.63-13.59,13.17.55,6.08,6.87,9.83,12.5,9.93,7.72.15,12.74-5.13,17.86-10.05.8-.77,1.59-1.85,2.38-1.9,9-17.68,20.39-36.45,29.25-46.79a11.28,11.28,0,0,0-14.05-.27c-3.23,2.42-5,5.74-3.95,9.82.49,1.91,2.07,5.64.2,5.89-1,.14-.74-1.79-1.11-4-1.16-7.22-8.09-11.89-15.37-8.56-6.47,2.95-6.71,10.18-1,14,.61.42,8.55,4.68,6.54,5.58-1.21.55-4.66-2.36-5.6-2.86a14.58,14.58,0,0,0-4.27-1.59c-6.09-1.15-13.49,2.07-14.41,8.75C276.2,327.8,278.37,330.75,281.59,332.15Zm7.59.69c1.45-.3,3.13-1.45,4.68-1,3.2,1,.8,2.64-1.86,1.89C291.15,333.51,290,333,289.18,332.84Z"/><path class="cls-33" d="M384.52,350.56a166.18,166.18,0,0,1-37.89-60.12"/><path class="cls-26" d="M353.64,307a49,49,0,0,1-6.74-7.51,44.83,44.83,0,0,1-5.1-9.61c-2.74-7.23-4.12-16.43-2.68-27.85,0,0,.82,1.52,2,4.1.58,1.29,1.27,2.84,2,4.59s1.54,3.71,2.42,5.81c.42,1,.82,2.15,1.24,3.28s.88,2.27,1.3,3.46c.78,2.38,1.7,4.83,2.38,7.42A82.22,82.22,0,0,1,353.64,307Z"/><path class="cls-26" d="M355.85,311.34a19,19,0,0,0-6.75-5.78,51.45,51.45,0,0,0-9-3.85c-3.09-1.09-6.2-2-8.88-2.84a40.54,40.54,0,0,1-6.16-2.32l.7,1.17c.46.73,1.09,1.78,2,3a45.7,45.7,0,0,0,7.34,8A23.36,23.36,0,0,0,345.26,314,12.44,12.44,0,0,0,355.85,311.34Z"/><path class="cls-26" d="M358.3,315.85c-4-6.55-4.3-14.05-3.14-20.45S359,283.51,360.38,280c0,0,.13.38.35,1.07s.57,1.66.91,2.87a74.92,74.92,0,0,1,2,9.38,40.17,40.17,0,0,1,.48,5.69,27.92,27.92,0,0,1-.39,5.89A19.64,19.64,0,0,1,358.3,315.85Z"/><path class="cls-26" d="M363.5,324.43a14.92,14.92,0,0,0-3.7-3.92,18,18,0,0,0-4.68-2.51,36.69,36.69,0,0,0-10.7-2.1,68.33,68.33,0,0,0-9.36,0c-2.46.18-4,.44-4,.44s1.19,1.32,3.16,3.11a43.23,43.23,0,0,0,8.15,5.7,24.41,24.41,0,0,0,10.7,3.05A15,15,0,0,0,363.5,324.43Z"/><path class="cls-26" d="M365.55,327.48A26.61,26.61,0,0,1,362,307.74a28.44,28.44,0,0,1,3.75-9.58,25.41,25.41,0,0,1,6.9-7.25,49.14,49.14,0,0,1,.84,8.11,37.55,37.55,0,0,1-.57,7.7,22.87,22.87,0,0,1-2.9,8.06c-3.06,5.15-4.11,8.4-4.49,10.29S365.55,327.48,365.55,327.48Z"/><path class="cls-26" d="M369.84,333.48a12,12,0,0,0-6-4,20.49,20.49,0,0,0-8.41-.66c-5.93.78-12.23,4-15.21,11.36a19.26,19.26,0,0,0,2.1.51,26.54,26.54,0,0,0,5.18.43c4-.07,8.79-1.26,12-5s5.76-4.2,7.52-4A4.81,4.81,0,0,1,369.84,333.48Z"/><path class="cls-26" d="M369,332.31a10.12,10.12,0,0,1-1.72-6.91,16.27,16.27,0,0,1,2.93-7.69,22.88,22.88,0,0,1,16.53-9.31s-.21.68-.65,1.78a39.71,39.71,0,0,1-2,4.23c-1.83,3.26-4.67,7.18-9.19,9.11s-5.91,4-6.28,5.76A4.27,4.27,0,0,0,369,332.31Z"/><path class="cls-34" d="M291.17,168.54c0,7.08-3.84,12.82-8.57,12.82s-17.43-.76-13.67-14.39c1.88-6.82,5.33-11.25,13.67-11.25C287.33,155.72,291.17,161.46,291.17,168.54Z"/><path class="cls-35" d="M288.41,166.29c.88-.65,1.18-2.73,1.22-5.07-1.55-3.32-4.12-5.5-7-5.5-8.34,0-11.79,4.43-13.67,11.25-3.76,13.63,8.94,14.39,13.67,14.39a5.73,5.73,0,0,0,1.84-.31c-2.26.65-3.88-.93-2.5-1.71a6.83,6.83,0,0,0,3.54-6.47C285.16,169.54,286.07,168,288.41,166.29Z"/><path class="cls-35" d="M285.12,180.79l.09,0Z"/><path class="cls-36" d="M281.8,175.71c-3.95,7.58,1.91,13.44,1.91,13.44l-21.53-1.5,7.59-13.91S283.42,172.62,281.8,175.71Z"/><path class="cls-35" d="M269.78,173.74,263,186.07l14.89.2a6,6,0,0,1,2.54-6h0a11.74,11.74,0,0,1,1.33-4.52C283.42,172.62,269.78,173.74,269.78,173.74Z"/><path class="cls-37" d="M245.79,205.39s-12.94,12.67-10.92,38c0,0-.76,1.52-1.32,2.5s1.27,2.83,4.59,1.21c1.58-.78-.58-3.63-.58-3.63s3.89-10.56,21.83-33.67Z"/><path class="cls-35" d="M242.46,217.9c-.18.22-.75,0-1.27-.38s-.79-.94-.61-1.16.75-.06,1.27.37S242.64,217.68,242.46,217.9Z"/><path class="cls-35" d="M259.39,209.82l-13.6-4.43a33.55,33.55,0,0,0-5.44,7.94c6.27,6,12.63,5,12.63,5h0C254.89,215.72,257,212.88,259.39,209.82Z"/><path class="cls-38" d="M255.92,217.76c9-12.21,12.41-25.06,8.13-29.61-8-8.47-17.24,14.35-23.42,15.7,0,0-2.07,5.4,3.39,9.88A18.45,18.45,0,0,0,255.92,217.76Z"/><path class="cls-39" d="M243.09,235.14c-6.7,6.92-3.09,17.92,5.4,22.61,0,0,1,22.19-2.07,24.54-7.12,5.4-15.75,15.84-26.11,16-3.92-1.29,1.4,17.48,3.44,13.86,1.16-2,1.16-5.81.22-8.93,4.79,0,37.8-11.43,47.17-41C280.21,233.67,243.09,235.14,243.09,235.14Z"/><path class="cls-40" d="M273.52,322.5c-1.34-.7-3.11-.43-4.89.23,4.51-20.52,23.1-57.49,25.87-93.53H260.86c-17.62,25.64,4.84,30.14,4.84,30.14,10.92,4.2-4.47,64.63-4.59,69,.16,2.8,5.15,1.09,7.4-.2C271,326.7,275.82,323.69,273.52,322.5Z"/><path class="cls-41" d="M291.38,249.86c-.69-5.4-5.76-6.7-14.17,0-13.78,11-30.79,9.55-35.16,1.79,0,0-5.76-7.2,1-16.54h49.84A61,61,0,0,1,291.38,249.86Z"/><path class="cls-42" d="M269.5,184.52c27.8,0,26.46,37.77,24.67,46.71-2.5,12.47-47.72,26.06-57.07,1.53,0,0,13.43-5.57,15.56-22.73C254.43,195.68,259.14,184.52,269.5,184.52Z"/><path class="cls-26" d="M280.21,239.17s12.53-17.66,11.45-31.37-4.28-18.6-10.79-17.52l-4.07-1.9s8.34-1.83,12.07,3.86c7.06,10.77-11,39-11,39Z"/><path class="cls-43" d="M281.87,215.77s-2,18.37,16,37.06c0,0,.38,1.69.58,2.82s2.84,1.42,4.4-2c.74-1.65-2.8-2.5-2.8-2.5s-3.77-10.84-4.59-40.68Z"/><path class="cls-35" d="M287.34,227.79c0,.29-.56.53-1.24.53s-1.24-.24-1.24-.53.55-.52,1.24-.52S287.34,227.5,287.34,227.79Z"/><path class="cls-35" d="M295.46,210.46l-13.59,5.31a34.45,34.45,0,0,0,.85,9.79c8.84.67,13.21-4.23,13.21-4.23h0C295.73,218,295.57,214.41,295.46,210.46Z"/><path class="cls-44" d="M297.87,219c-.8-15.46-6.44-27.79-12.76-28.61-11.77-1.52-4.31,22.48-8.31,27.55,0,0,1.87,5.6,9.07,5.6A18.85,18.85,0,0,0,297.87,219Z"/><path class="cls-45" d="M281.8,192.78a124.73,124.73,0,0,0-3.33,30.72c0,13.39,4.11,17.06,0,22.23-4.76,6-17.92,9.65-32.83,5.42s-8.62-22.83-2-46C248.47,188.27,281.37,184.11,281.8,192.78Z"/><path class="cls-26" d="M243.65,205.14c-1.57,5.48-3.11,10.65-4.35,15.43,10.27,4.94,31.49,3.34,33.47-1,2.19-4.81-5.4-28.88,9-26.76C281.37,184.11,248.47,188.27,243.65,205.14Z"/><path class="cls-46" d="M248.53,188.54c7.15-4.38,32.4-5.2,33.27,4.24,0,0-4.76-1.73-8,1.93s-3.06,16.61-2.61,22.94-40.57,1.36-33.26-4.19c0,0,3.4-1.77,5.76-8.32C245.19,200.87,241.29,193,248.53,188.54Z"/><path class="cls-47" d="M269.7,223.49a31.41,31.41,0,0,1-.62,7.11c-.43,2.34-1,4.65-1.45,7s-.9,4.66-1.14,7a11.63,11.63,0,0,0,.08,3.44,4.21,4.21,0,0,0,.67,1.53,3.43,3.43,0,0,0,1.37,1l0,.07a3.34,3.34,0,0,1-1.61-.86,4.37,4.37,0,0,1-.93-1.62,11.17,11.17,0,0,1-.34-3.63,41.54,41.54,0,0,1,1.31-7.05c.57-2.31,1.17-4.6,1.68-6.92a31.43,31.43,0,0,0,.92-7Z"/><path class="cls-48" d="M263.43,203.29c-1.3,6.41,1.8,23-4.06,31.74,0,0-3.62,0-4.09-3,0,0,3-2.53,4-8.06s1.27-19.29,1.29-20.64c0-1.09,1.84-.6,2.57-.32A.83.83,0,0,1,263.43,203.29Z"/><path class="cls-49" d="M263.11,203c-1.35,6.34,2,22.79-4,31.61,0,0-4.08-.37-4.66-3.39,0,0,3.28-2.25,4.34-7.74s1.44-19.12,1.44-20.48S263.11,203,263.11,203Z"/><path class="cls-50" d="M248.49,203.19c-1.92,5.74-.79,20.63-7.15,28.61,0,0-3.6-.34-3.78-3.06a13.33,13.33,0,0,0,4.75-7c1.56-5,3.15-17.5,3.3-18.73.12-1,1.89-.38,2.59-.06A.89.89,0,0,1,248.49,203.19Z"/><path class="cls-51" d="M248.2,203c-1.92,5.74-.78,20.63-7.14,28.61,0,0-3.61-.34-3.79-3.07a13.26,13.26,0,0,0,4.75-7c1.56-5,3.44-17.31,3.59-18.54S248.2,203,248.2,203Z"/><path class="cls-52" d="M288.87,157.44c9,7.9-4,7.73-4,13.54,0,13.56-14.19,5.87-8.06,17.4,5.29,10-7.07,13.64-16.25,10.18s-19.84-11.84-27.09-9.41c-12.84,4.31-11.45-12.79,3.81-6.54s7.4-11.94,18-13.16,10.69-3.73,14.57-8.39C274.31,155.72,282.18,151.58,288.87,157.44Z"/><path class="cls-26" d="M377.11,185.73s-2.66-6.25,3.55-11.88C380.66,173.85,384.63,181.43,377.11,185.73Z"/><path class="cls-26" d="M413.24,197.32s2.37-8,12.7-8.54C425.94,188.78,423.79,199.12,413.24,197.32Z"/><path class="cls-26" d="M378.68,199s8.29-1.65,13.59,7.34C392.27,206.37,382,209.29,378.68,199Z"/><path class="cls-26" d="M238.39,131.68s-5.1-2.5-4.25-9.45C234.14,122.23,240.79,124.85,238.39,131.68Z"/><path class="cls-26" d="M218.91,154.74s-1.65-4.22,2.6-7.86C221.51,146.88,224,152,218.91,154.74Z"/><path class="cls-26" d="M178.15,116.21s4.16-6.12,13-3.75C191.12,112.46,186.52,120.56,178.15,116.21Z"/><path class="cls-26" d="M352,141.76s-6.94-2.36-7-11.4C345,130.36,354,132.62,352,141.76Z"/><path class="cls-26" d="M346.28,101.91s2.07-7.31,12-8C358.29,93.89,356.49,103.26,346.28,101.91Z"/></g></g></g></svg>