<svg width="815" height="285" viewBox="0 0 815 285" fill="none" xmlns="http://www.w3.org/2000/svg">
<g clip-path="url(#clip0)">
<rect width="815" height="285" fill="white"/>
<path d="M170 45H82L38 121L82 197H170L214 121L170 45Z" stroke="#FEB700" stroke-width="20"/>
<path d="M234 88H146L102 164L146 240H234L278 164L234 88Z" stroke="#3E2E06" stroke-width="20"/>
<path d="M390.98 160.21C390.98 164.11 390.2 167.533 388.64 170.48C387.08 173.427 384.913 175.897 382.14 177.89C379.453 179.883 376.29 181.4 372.65 182.44C369.097 183.48 365.283 184 361.21 184H316.62V91.7H366.02C369.227 91.7 372.13 92.3933 374.73 93.78C377.33 95.1667 379.54 96.9867 381.36 99.24C383.18 101.407 384.567 103.92 385.52 106.78C386.56 109.553 387.08 112.37 387.08 115.23C387.08 119.737 385.953 123.983 383.7 127.97C381.447 131.87 378.153 134.773 373.82 136.68C379.107 138.24 383.267 141.057 386.3 145.13C389.42 149.117 390.98 154.143 390.98 160.21ZM372.91 156.83C372.91 155.183 372.607 153.623 372 152.15C371.48 150.59 370.743 149.247 369.79 148.12C368.837 146.993 367.71 146.127 366.41 145.52C365.11 144.827 363.68 144.48 362.12 144.48H334.56V168.79H361.21C362.857 168.79 364.373 168.487 365.76 167.88C367.233 167.273 368.49 166.45 369.53 165.41C370.57 164.283 371.393 162.983 372 161.51C372.607 160.037 372.91 158.477 372.91 156.83ZM334.56 107.04V130.31H358.48C361.513 130.31 364.07 129.27 366.15 127.19C368.317 125.11 369.4 122.25 369.4 118.61C369.4 115.057 368.403 112.24 366.41 110.16C364.503 108.08 362.12 107.04 359.26 107.04H334.56Z" fill="#FEB700"/>
<path d="M420.62 184V91.7H459.75C463.997 91.7 467.897 92.61 471.45 94.43C475.09 96.1633 478.21 98.5033 480.81 101.45C483.41 104.31 485.447 107.603 486.92 111.33C488.393 114.97 489.13 118.653 489.13 122.38C489.13 126.28 488.437 130.093 487.05 133.82C485.663 137.46 483.713 140.71 481.2 143.57C478.687 146.43 475.653 148.727 472.1 150.46C468.547 152.193 464.647 153.06 460.4 153.06H438.56V184H420.62ZM438.56 137.33H459.36C462.653 137.33 465.383 135.987 467.55 133.3C469.803 130.613 470.93 126.973 470.93 122.38C470.93 120.04 470.583 117.96 469.89 116.14C469.197 114.233 468.287 112.63 467.16 111.33C466.033 110.03 464.69 109.077 463.13 108.47C461.657 107.777 460.14 107.43 458.58 107.43H438.56V137.33ZM516.993 185.3C513.699 185.3 510.623 184.78 507.763 183.74C504.903 182.613 502.433 181.097 500.353 179.19C498.273 177.197 496.626 174.9 495.413 172.3C494.286 169.7 493.723 166.84 493.723 163.72C493.723 160.513 494.416 157.567 495.803 154.88C497.276 152.107 499.269 149.767 501.783 147.86C504.383 145.953 507.459 144.48 511.013 143.44C514.566 142.313 518.466 141.75 522.713 141.75C525.746 141.75 528.693 142.01 531.553 142.53C534.499 143.05 537.099 143.787 539.353 144.74V140.84C539.353 136.333 538.053 132.867 535.453 130.44C532.939 128.013 529.169 126.8 524.143 126.8C520.503 126.8 516.949 127.45 513.483 128.75C510.016 130.05 506.463 131.957 502.823 134.47L497.493 123.42C506.246 117.613 515.693 114.71 525.833 114.71C535.626 114.71 543.209 117.137 548.583 121.99C554.043 126.757 556.773 133.69 556.773 142.79V163.98C556.773 165.8 557.119 167.1 557.813 167.88C558.506 168.66 559.719 169.093 561.453 169.18V184C559.806 184.347 558.246 184.563 556.773 184.65C555.386 184.823 554.173 184.91 553.133 184.91C549.839 184.823 547.326 184.087 545.593 182.7C543.859 181.227 542.776 179.277 542.343 176.85L541.953 173.08C538.919 177.067 535.236 180.1 530.903 182.18C526.569 184.26 521.933 185.3 516.993 185.3ZM521.933 172.56C524.879 172.56 527.653 172.04 530.253 171C532.939 169.96 535.019 168.573 536.493 166.84C538.399 165.367 539.353 163.72 539.353 161.9V154.1C537.273 153.32 535.019 152.713 532.593 152.28C530.166 151.76 527.826 151.5 525.573 151.5C521.066 151.5 517.383 152.54 514.523 154.62C511.663 156.613 510.233 159.17 510.233 162.29C510.233 165.237 511.359 167.707 513.613 169.7C515.866 171.607 518.639 172.56 521.933 172.56ZM636.739 184H619.319V145.78C619.319 140.32 618.366 136.333 616.459 133.82C614.552 131.307 611.909 130.05 608.529 130.05C606.796 130.05 605.019 130.397 603.199 131.09C601.379 131.783 599.646 132.78 597.999 134.08C596.439 135.293 595.009 136.767 593.709 138.5C592.409 140.233 591.456 142.14 590.849 144.22V184H573.429V115.88H589.159V128.49C591.672 124.157 595.312 120.777 600.079 118.35C604.846 115.923 610.219 114.71 616.199 114.71C620.446 114.71 623.912 115.49 626.599 117.05C629.286 118.61 631.366 120.647 632.839 123.16C634.312 125.673 635.309 128.533 635.829 131.74C636.436 134.947 636.739 138.197 636.739 141.49V184ZM683.352 185.3C677.892 185.3 672.952 184.39 668.532 182.57C664.112 180.663 660.342 178.107 657.222 174.9C654.102 171.693 651.675 167.967 649.942 163.72C648.295 159.473 647.472 155.01 647.472 150.33C647.472 145.477 648.295 140.927 649.942 136.68C651.589 132.347 653.972 128.577 657.092 125.37C660.212 122.077 663.982 119.477 668.402 117.57C672.909 115.663 677.935 114.71 683.482 114.71C689.029 114.71 693.969 115.663 698.302 117.57C702.722 119.477 706.449 122.033 709.482 125.24C712.602 128.447 714.942 132.173 716.502 136.42C718.149 140.667 718.972 145.087 718.972 149.68C718.972 150.807 718.929 151.89 718.842 152.93C718.842 153.97 718.755 154.837 718.582 155.53H665.932C666.192 158.217 666.842 160.6 667.882 162.68C668.922 164.76 670.265 166.537 671.912 168.01C673.559 169.483 675.422 170.61 677.502 171.39C679.582 172.17 681.749 172.56 684.002 172.56C687.469 172.56 690.719 171.737 693.752 170.09C696.872 168.357 698.995 166.103 700.122 163.33L715.072 167.49C712.559 172.69 708.529 176.98 702.982 180.36C697.522 183.653 690.979 185.3 683.352 185.3ZM701.032 144.22C700.599 139.107 698.692 135.033 695.312 132C692.019 128.88 687.989 127.32 683.222 127.32C680.882 127.32 678.672 127.753 676.592 128.62C674.599 129.4 672.822 130.527 671.262 132C669.702 133.473 668.402 135.25 667.362 137.33C666.409 139.41 665.845 141.707 665.672 144.22H701.032ZM729.451 89.1H746.871V161.38C746.871 166.667 749.255 169.31 754.021 169.31C754.975 169.31 756.058 169.137 757.271 168.79C758.571 168.443 759.785 168.053 760.911 167.62L763.251 181.53C760.911 182.657 758.181 183.523 755.061 184.13C751.941 184.737 749.125 185.04 746.611 185.04C741.151 185.04 736.905 183.61 733.871 180.75C730.925 177.803 729.451 173.643 729.451 168.27V89.1Z" fill="#3E2E06"/>
</g>
<defs>
<clipPath id="clip0">
<rect width="815" height="285" fill="white"/>
</clipPath>
</defs>
</svg>
